<svg width="756" height="1247" viewBox="0 0 756 1247" fill="none" xmlns="http://www.w3.org/2000/svg">
<g filter="url(#filter0_i_369_4)">
<path d="M616.5 8.5C824.351 69.3662 738.125 332.921 738.5 549.5C738.986 830.084 809 1172.13 536.5 1239C267.241 1305.07 -115.352 905.12 34.0002 737.5C87.5218 677.432 148.306 600.282 220.5 511.5C378.227 317.53 387.612 -58.5268 616.5 8.5Z" fill="white"/>
</g>
<line x1="534.909" y1="801.5" x2="547.909" y2="801.5" stroke="black"/>
<line x1="541.409" y1="808" x2="541.409" y2="795" stroke="black"/>
<line x1="259.909" y1="1010.5" x2="272.909" y2="1010.5" stroke="black"/>
<line x1="266.409" y1="1017" x2="266.409" y2="1004" stroke="black"/>
<line x1="93.9091" y1="860.5" x2="106.909" y2="860.5" stroke="black"/>
<line x1="100.409" y1="867" x2="100.409" y2="854" stroke="black"/>
<line x1="629.909" y1="995.5" x2="642.909" y2="995.5" stroke="black"/>
<line x1="636.409" y1="1002" x2="636.409" y2="989" stroke="black"/>
<line x1="611.909" y1="112.5" x2="624.909" y2="112.5" stroke="black"/>
<line x1="618.409" y1="119" x2="618.409" y2="106" stroke="black"/>
<line x1="362.909" y1="446.5" x2="375.909" y2="446.5" stroke="black"/>
<line x1="369.409" y1="453" x2="369.409" y2="440" stroke="black"/>
<line x1="400.909" y1="982.5" x2="413.909" y2="982.5" stroke="black"/>
<line x1="407.409" y1="989" x2="407.409" y2="976" stroke="black"/>
<line x1="659.909" y1="352.5" x2="672.909" y2="352.5" stroke="black"/>
<line x1="666.409" y1="359" x2="666.409" y2="346" stroke="black"/>
<line x1="499.909" y1="283.5" x2="512.909" y2="283.5" stroke="black"/>
<line x1="506.409" y1="290" x2="506.409" y2="277" stroke="black"/>
<line x1="547.909" y1="494.5" x2="560.909" y2="494.5" stroke="black"/>
<line x1="554.409" y1="501" x2="554.409" y2="488" stroke="black"/>
<line x1="622.909" y1="671.5" x2="635.909" y2="671.5" stroke="black"/>
<line x1="629.409" y1="678" x2="629.409" y2="665" stroke="black"/>
<line x1="272.909" y1="678.5" x2="285.909" y2="678.5" stroke="black"/>
<line x1="279.409" y1="685" x2="279.409" y2="672" stroke="black"/>
<line x1="212.909" y1="801.5" x2="225.909" y2="801.5" stroke="black"/>
<line x1="219.409" y1="808" x2="219.409" y2="795" stroke="black"/>
<line x1="444.909" y1="597.5" x2="457.909" y2="597.5" stroke="black"/>
<line x1="451.409" y1="604" x2="451.409" y2="591" stroke="black"/>
<line x1="457.909" y1="726.5" x2="470.909" y2="726.5" stroke="black"/>
<line x1="464.409" y1="733" x2="464.409" y2="720" stroke="black"/>
<line x1="499.909" y1="902.5" x2="512.909" y2="902.5" stroke="black"/>
<line x1="506.409" y1="909" x2="506.409" y2="896" stroke="black"/>
<circle cx="366.909" cy="336" r="4" fill="#BDE7FF"/>
<circle cx="470.909" cy="444" r="4" fill="#BDE7FF"/>
<circle cx="645.909" cy="262" r="4" fill="#BDE7FF"/>
<circle cx="425.909" cy="174" r="4" fill="#BDE7FF"/>
<circle cx="669.909" cy="524" r="4" fill="#BDE7FF"/>
<circle cx="633.909" cy="812" r="4" fill="#BDE7FF"/>
<circle cx="564.909" cy="1100" r="4" fill="#BDE7FF"/>
<circle cx="325.909" cy="1108" r="4" fill="#BDE7FF"/>
<circle cx="524.909" cy="1000" r="4" fill="#BDE7FF"/>
<circle cx="277.909" cy="884" r="4" fill="#BDE7FF"/>
<circle cx="133.909" cy="983" r="4" fill="#BDE7FF"/>
<circle cx="417.909" cy="863" r="4" fill="#BDE7FF"/>
<circle cx="557.909" cy="604" r="4" fill="#BDE7FF"/>
<circle cx="335.909" cy="555" r="4" fill="#BDE7FF"/>
<circle cx="579.909" cy="905" r="4" fill="#BDE7FF"/>
<circle cx="52.9091" cy="761" r="4" fill="#BDE7FF"/>
<defs>
<filter id="filter0_i_369_4" x="0.488281" y="0.600655" width="761.428" height="1251.7" filterUnits="userSpaceOnUse" color-interpolation-filters="sRGB">
<feFlood flood-opacity="0" result="BackgroundImageFix"/>
<feBlend mode="normal" in="SourceGraphic" in2="BackgroundImageFix" result="shape"/>
<feColorMatrix in="SourceAlpha" type="matrix" values="0 0 0 0 0 0 0 0 0 0 0 0 0 0 0 0 0 0 127 0" result="hardAlpha"/>
<feOffset dx="6" dy="6"/>
<feGaussianBlur stdDeviation="4"/>
<feComposite in2="hardAlpha" operator="arithmetic" k2="-1" k3="1"/>
<feColorMatrix type="matrix" values="0 0 0 0 0 0 0 0 0 0 0 0 0 0 0 0 0 0 0.25 0"/>
<feBlend mode="normal" in2="shape" result="effect1_innerShadow_369_4"/>
</filter>
</defs>
</svg>
