<svg width="711" height="1176" viewBox="0 0 711 1176" fill="none" xmlns="http://www.w3.org/2000/svg">
<g filter="url(#filter0_i_369_4)">
<path d="M355.5 191.5C433.728 31.3699 710.909 0 710.909 0V1054C710.909 1054 528.107 1182.54 396.909 1175C236.33 1165.77 -112.353 895.12 37 727.5C90.5216 667.432 275.973 654.658 306.909 585.5C337.845 516.342 297.452 310.321 355.5 191.5Z" fill="white"/>
</g>
<line x1="537.909" y1="791.5" x2="550.909" y2="791.5" stroke="black"/>
<line x1="544.409" y1="798" x2="544.409" y2="785" stroke="black"/>
<line x1="262.909" y1="1000.5" x2="275.909" y2="1000.5" stroke="black"/>
<line x1="269.409" y1="1007" x2="269.409" y2="994" stroke="black"/>
<line x1="96.9088" y1="850.5" x2="109.909" y2="850.5" stroke="black"/>
<line x1="103.409" y1="857" x2="103.409" y2="844" stroke="black"/>
<line x1="632.909" y1="985.5" x2="645.909" y2="985.5" stroke="black"/>
<line x1="639.409" y1="992" x2="639.409" y2="979" stroke="black"/>
<line x1="614.909" y1="102.5" x2="627.909" y2="102.5" stroke="black"/>
<line x1="621.409" y1="109" x2="621.409" y2="96" stroke="black"/>
<line x1="365.909" y1="436.5" x2="378.909" y2="436.5" stroke="black"/>
<line x1="372.409" y1="443" x2="372.409" y2="430" stroke="black"/>
<line x1="403.909" y1="972.5" x2="416.909" y2="972.5" stroke="black"/>
<line x1="410.409" y1="979" x2="410.409" y2="966" stroke="black"/>
<line x1="662.909" y1="342.5" x2="675.909" y2="342.5" stroke="black"/>
<line x1="669.409" y1="349" x2="669.409" y2="336" stroke="black"/>
<line x1="502.909" y1="273.5" x2="515.909" y2="273.5" stroke="black"/>
<line x1="509.409" y1="280" x2="509.409" y2="267" stroke="black"/>
<line x1="550.909" y1="484.5" x2="563.909" y2="484.5" stroke="black"/>
<line x1="557.409" y1="491" x2="557.409" y2="478" stroke="black"/>
<line x1="625.909" y1="661.5" x2="638.909" y2="661.5" stroke="black"/>
<line x1="632.409" y1="668" x2="632.409" y2="655" stroke="black"/>
<line x1="275.909" y1="668.5" x2="288.909" y2="668.5" stroke="black"/>
<line x1="282.409" y1="675" x2="282.409" y2="662" stroke="black"/>
<line x1="215.909" y1="791.5" x2="228.909" y2="791.5" stroke="black"/>
<line x1="222.409" y1="798" x2="222.409" y2="785" stroke="black"/>
<line x1="447.909" y1="587.5" x2="460.909" y2="587.5" stroke="black"/>
<line x1="454.409" y1="594" x2="454.409" y2="581" stroke="black"/>
<line x1="460.909" y1="716.5" x2="473.909" y2="716.5" stroke="black"/>
<line x1="467.409" y1="723" x2="467.409" y2="710" stroke="black"/>
<line x1="502.909" y1="892.5" x2="515.909" y2="892.5" stroke="black"/>
<line x1="509.409" y1="899" x2="509.409" y2="886" stroke="black"/>
<circle cx="369.909" cy="326" r="4" fill="#BDE7FF"/>
<circle cx="473.909" cy="434" r="4" fill="#BDE7FF"/>
<circle cx="648.909" cy="252" r="4" fill="#BDE7FF"/>
<circle cx="428.909" cy="164" r="4" fill="#BDE7FF"/>
<circle cx="672.909" cy="514" r="4" fill="#BDE7FF"/>
<circle cx="636.909" cy="802" r="4" fill="#BDE7FF"/>
<circle cx="567.909" cy="1090" r="4" fill="#BDE7FF"/>
<circle cx="328.909" cy="1098" r="4" fill="#BDE7FF"/>
<circle cx="527.909" cy="990" r="4" fill="#BDE7FF"/>
<circle cx="280.909" cy="874" r="4" fill="#BDE7FF"/>
<circle cx="136.909" cy="973" r="4" fill="#BDE7FF"/>
<circle cx="420.909" cy="853" r="4" fill="#BDE7FF"/>
<circle cx="560.909" cy="594" r="4" fill="#BDE7FF"/>
<circle cx="338.909" cy="545" r="4" fill="#BDE7FF"/>
<circle cx="582.909" cy="895" r="4" fill="#BDE7FF"/>
<circle cx="55.9088" cy="751" r="4" fill="#BDE7FF"/>
<defs>
<filter id="filter0_i_369_4" x="0.638794" y="0" width="716.27" height="1181.32" filterUnits="userSpaceOnUse" color-interpolation-filters="sRGB">
<feFlood flood-opacity="0" result="BackgroundImageFix"/>
<feBlend mode="normal" in="SourceGraphic" in2="BackgroundImageFix" result="shape"/>
<feColorMatrix in="SourceAlpha" type="matrix" values="0 0 0 0 0 0 0 0 0 0 0 0 0 0 0 0 0 0 127 0" result="hardAlpha"/>
<feOffset dx="6" dy="6"/>
<feGaussianBlur stdDeviation="4"/>
<feComposite in2="hardAlpha" operator="arithmetic" k2="-1" k3="1"/>
<feColorMatrix type="matrix" values="0 0 0 0 0 0 0 0 0 0 0 0 0 0 0 0 0 0 0.25 0"/>
<feBlend mode="normal" in2="shape" result="effect1_innerShadow_369_4"/>
</filter>
</defs>
</svg>
