<svg width="72" height="72" viewBox="0 0 72 72" fill="none" xmlns="http://www.w3.org/2000/svg">
<path d="M11.1974 19.912C11.8515 19.912 12.3817 19.3818 12.3817 18.7277C12.3817 18.0737 11.8515 17.5435 11.1974 17.5435C10.5433 17.5435 10.0131 18.0737 10.0131 18.7277C10.0131 19.3818 10.5433 19.912 11.1974 19.912Z" fill="white"/>
<path d="M19.0965 19.912C19.7505 19.912 20.2808 19.3818 20.2808 18.7277C20.2808 18.0737 19.7505 17.5435 19.0965 17.5435C18.4424 17.5435 17.9122 18.0737 17.9122 18.7277C17.9122 19.3818 18.4424 19.912 19.0965 19.912Z" fill="white"/>
<path d="M15.1529 19.912C15.807 19.912 16.3372 19.3818 16.3372 18.7277C16.3372 18.0737 15.807 17.5435 15.1529 17.5435C14.4988 17.5435 13.9686 18.0737 13.9686 18.7277C13.9686 19.3818 14.4988 19.912 15.1529 19.912Z" fill="white"/>
<path d="M23.8336 35.9117L27.3865 32.3588C27.6095 32.1358 27.7347 31.8334 27.7347 31.518C27.7347 31.2026 27.6095 30.9001 27.3865 30.6771C27.1635 30.4541 26.861 30.3289 26.5456 30.3289C26.2302 30.3289 25.9278 30.4541 25.7048 30.6771L21.2993 35.0945C21.0787 35.3164 20.9549 35.6165 20.9549 35.9294C20.9549 36.2423 21.0787 36.5424 21.2993 36.7643L25.7048 41.1817C25.8149 41.2927 25.9459 41.3808 26.0902 41.4409C26.2345 41.501 26.3893 41.532 26.5456 41.532C26.702 41.532 26.8568 41.501 27.0011 41.4409C27.1454 41.3808 27.2764 41.2927 27.3865 41.1817C27.607 40.9598 27.7308 40.6596 27.7308 40.3468C27.7308 40.0339 27.607 39.7337 27.3865 39.5119L23.8336 35.9117Z" fill="white"/>
<path d="M40.7925 41.158C41.0144 41.3785 41.3145 41.5023 41.6274 41.5023C41.9403 41.5023 42.2404 41.3785 42.4623 41.158L46.8797 36.7998C47.1003 36.5779 47.2241 36.2778 47.2241 35.9649C47.2241 35.652 47.1003 35.3519 46.8797 35.13L42.4623 30.7126C42.2393 30.4912 41.9375 30.3674 41.6232 30.3685C41.309 30.3696 41.008 30.4956 40.7866 30.7186C40.5651 30.9416 40.4414 31.2434 40.4425 31.5577C40.4436 31.8719 40.5695 32.1729 40.7925 32.3943L44.3453 35.9471L40.7925 39.5C40.5755 39.7214 40.454 40.019 40.454 40.329C40.454 40.639 40.5755 40.9366 40.7925 41.158Z" fill="white"/>
<path d="M36.8607 31.0561C36.7255 30.9778 36.5762 30.927 36.4213 30.9067C36.2664 30.8863 36.1091 30.8968 35.9582 30.9376C35.8074 30.9783 35.6662 31.0485 35.5426 31.144C35.419 31.2396 35.3156 31.3586 35.2382 31.4943L30.8682 39.1684C30.7825 39.3032 30.725 39.454 30.6991 39.6116C30.6732 39.7692 30.6794 39.9304 30.7174 40.0855C30.7554 40.2407 30.8244 40.3865 30.9202 40.5143C31.016 40.6421 31.1367 40.7492 31.275 40.8291C31.4133 40.909 31.5663 40.9602 31.7249 40.9794C31.8834 40.9987 32.0442 40.9857 32.1976 40.9412C32.351 40.8967 32.4938 40.8216 32.6175 40.7205C32.7411 40.6193 32.843 40.4942 32.917 40.3527L37.3344 32.7141C37.417 32.5754 37.4704 32.4212 37.4912 32.261C37.5121 32.1009 37.4999 31.9381 37.4556 31.7828C37.4112 31.6275 37.3355 31.483 37.2332 31.358C37.1309 31.233 37.0041 31.1303 36.8607 31.0561Z" fill="white"/>
<path d="M66.3018 47.4583C66.232 47.4578 66.1639 47.4359 66.1068 47.3957C66.0497 47.3555 66.0062 47.2989 65.9821 47.2333C65.5108 45.9937 64.843 44.838 64.0043 43.8107C63.9646 43.7533 63.9433 43.6851 63.9433 43.6153C63.9433 43.5455 63.9646 43.4773 64.0043 43.4199C64.365 42.7947 64.4628 42.052 64.2763 41.3548C64.0898 40.6575 63.6342 40.0628 63.0095 39.7013L62.1213 39.1683V17.5434C62.1213 16.6012 61.747 15.6975 61.0807 15.0312C60.4144 14.3649 59.5108 13.9906 58.5685 13.9906H9.62229C8.68002 13.9906 7.77634 14.3649 7.11006 15.0312C6.44377 15.6975 6.06946 16.6012 6.06946 17.5434V47.553C6.07257 48.2839 6.36429 48.9839 6.8811 49.5008C7.39791 50.0176 8.09796 50.3093 8.82883 50.3124H25.0179L23.8336 54.6942H22.2585C21.105 54.695 19.9855 55.0847 19.0808 55.8003C18.1761 56.5159 17.5391 57.5156 17.2727 58.6379H14.3594C14.0453 58.6379 13.7441 58.7626 13.522 58.9847C13.2999 59.2068 13.1751 59.5081 13.1751 59.8221C13.1751 60.1362 13.2999 60.4375 13.522 60.6596C13.7441 60.8817 14.0453 61.0064 14.3594 61.0064H44.523C44.5029 61.2894 44.5309 61.5737 44.6059 61.8473C44.6947 62.1947 44.8527 62.5206 45.0704 62.8055C45.2881 63.0904 45.5611 63.3284 45.873 63.5053L48.3719 64.9501C48.6821 65.1282 49.0244 65.2434 49.3792 65.2892C49.734 65.335 50.0944 65.3105 50.4397 65.217C50.785 65.1235 51.1085 64.963 51.3918 64.7444C51.675 64.5259 51.9124 64.2537 52.0905 63.9434C52.1289 63.883 52.1841 63.8351 52.2493 63.8057C52.3145 63.7762 52.3869 63.7665 52.4576 63.7776C53.7586 64.0027 55.0885 64.0027 56.3894 63.7776C56.4615 63.766 56.5353 63.7767 56.601 63.8085C56.6667 63.8403 56.721 63.8916 56.7565 63.9553C56.9979 64.3686 57.3439 64.711 57.7598 64.948C58.1756 65.185 58.6465 65.3083 59.1251 65.3054C59.6026 65.31 60.0727 65.1873 60.487 64.9501L62.9859 63.5053C63.2961 63.3263 63.5678 63.0876 63.7853 62.803C64.0028 62.5184 64.1618 62.1936 64.253 61.8473C64.3473 61.503 64.3718 61.1433 64.325 60.7894C64.2783 60.4355 64.1612 60.0946 63.9806 59.7866C63.9399 59.7274 63.9181 59.6572 63.9181 59.5853C63.9181 59.5134 63.9399 59.4432 63.9806 59.384C64.8167 58.3592 65.4843 57.2079 65.9584 55.9732C65.981 55.9067 66.0241 55.849 66.0816 55.8086C66.139 55.7682 66.2079 55.747 66.2781 55.7482C66.9996 55.7451 67.6906 55.4571 68.2007 54.947C68.7109 54.4368 68.9989 53.7458 69.002 53.0244V50.1348C68.9897 49.4247 68.7005 48.7475 68.1961 48.2475C67.6917 47.7476 67.012 47.4644 66.3018 47.4583ZM8.43801 17.5434C8.43801 17.2293 8.56279 16.9281 8.78488 16.706C9.00698 16.4839 9.3082 16.3592 9.62229 16.3592H58.5685C58.8826 16.3592 59.1838 16.4839 59.4059 16.706C59.628 16.9281 59.7528 17.2293 59.7528 17.5434V21.0963H8.43801V17.5434ZM8.82883 47.9438C8.7775 47.9438 8.72668 47.9337 8.67927 47.9141C8.63185 47.8945 8.58877 47.8657 8.55248 47.8294C8.51619 47.7931 8.4874 47.75 8.46776 47.7026C8.44812 47.6552 8.43801 47.6044 8.43801 47.553V23.4648H59.7528V37.9841C59.1924 37.8352 58.599 37.8699 58.0597 38.0831C57.5205 38.2962 57.0638 38.6766 56.7565 39.1683C56.7197 39.2268 56.666 39.2727 56.6027 39.3002C56.5393 39.3276 56.4691 39.3353 56.4013 39.3223C55.0993 39.1091 53.7714 39.1091 52.4695 39.3223C52.4016 39.3371 52.3308 39.3302 52.267 39.3026C52.2033 39.2749 52.1498 39.228 52.1142 39.1683C51.9363 38.8579 51.6987 38.5857 51.4151 38.3675C51.1316 38.1492 50.8076 37.9893 50.462 37.8968C50.1163 37.8043 49.7558 37.7812 49.4011 37.8287C49.0464 37.8762 48.7047 37.9934 48.3955 38.1736L45.8967 39.6184C45.5856 39.7934 45.313 40.0294 45.0953 40.3122C44.8776 40.5951 44.7191 40.919 44.6295 41.2645C44.4402 41.9627 44.5338 42.7074 44.8901 43.337C44.9333 43.393 44.9567 43.4617 44.9567 43.5324C44.9567 43.6031 44.9333 43.6718 44.8901 43.7278C44.0514 44.7551 43.3836 45.9108 42.9123 47.1504C42.8883 47.216 42.8447 47.2726 42.7876 47.3128C42.7305 47.353 42.6624 47.3749 42.5926 47.3754C42.0125 47.3762 41.448 47.563 40.982 47.9083L8.82883 47.9438ZM40.4135 54.6942H26.2022L27.3865 50.3124H39.8214V53.0244C39.829 53.6311 40.0372 54.2183 40.4135 54.6942ZM22.2704 57.0628H43.3505C43.6212 57.6088 43.9299 58.1351 44.2743 58.6379H19.7716C19.9951 58.1673 20.3473 57.7697 20.7875 57.491C21.2276 57.2122 21.7376 57.0638 22.2585 57.0628H22.2704ZM66.6571 53.0244C66.6571 53.1186 66.6197 53.209 66.553 53.2756C66.4864 53.3423 66.3961 53.3797 66.3018 53.3797C65.7502 53.3811 65.2118 53.5492 64.7574 53.8619C64.3031 54.1747 63.9538 54.6176 63.7556 55.1324C63.3771 56.1309 62.8413 57.0624 62.1687 57.8918C61.8218 58.3202 61.6125 58.8434 61.5681 59.3929C61.5238 59.9423 61.6464 60.4924 61.92 60.9709C61.939 61.0117 61.9489 61.0562 61.9489 61.1012C61.9489 61.1462 61.939 61.1907 61.92 61.2314C61.9097 61.2785 61.8896 61.3228 61.861 61.3616C61.8325 61.4003 61.7961 61.4327 61.7542 61.4565L59.2909 62.8539C59.2498 62.8768 59.2045 62.8913 59.1577 62.8965C59.1109 62.9017 59.0636 62.8976 59.0184 62.8844C58.9732 62.8712 58.9311 62.8491 58.8946 62.8195C58.858 62.7898 58.8277 62.7532 58.8053 62.7118C58.5253 62.2345 58.1072 61.8534 57.6061 61.6187C57.105 61.384 56.5445 61.3068 55.9986 61.3972C54.9561 61.5748 53.891 61.5748 52.8484 61.3972C52.3013 61.3079 51.7399 61.3869 51.2387 61.6238C50.7375 61.8606 50.32 62.2442 50.0417 62.7236C49.9925 62.803 49.9149 62.8607 49.8247 62.8849C49.7345 62.9091 49.6385 62.898 49.5561 62.8539L47.0573 61.4091C47.0154 61.3853 46.979 61.353 46.9505 61.3142C46.9219 61.2754 46.9018 61.2311 46.8915 61.1841C46.8725 61.1433 46.8626 61.0988 46.8626 61.0538C46.8626 61.0088 46.8725 60.9643 46.8915 60.9235C47.1619 60.444 47.2827 59.8946 47.2384 59.3459C47.1941 58.7972 46.9867 58.2743 46.6428 57.8444C45.9641 57.0172 45.4242 56.0853 45.044 55.085C44.8454 54.5838 44.5012 54.1535 44.0559 53.8495C43.6105 53.5456 43.0844 53.382 42.5452 53.3797C42.451 53.3797 42.3606 53.3423 42.294 53.2756C42.2274 53.209 42.1899 53.1186 42.1899 53.0244V50.1348C42.1883 50.0877 42.1963 50.0407 42.2136 49.9969C42.2309 49.953 42.257 49.9132 42.2903 49.8799C42.3236 49.8465 42.3635 49.8204 42.4073 49.8031C42.4512 49.7859 42.4981 49.7778 42.5452 49.7795C43.0952 49.7774 43.6317 49.6088 44.0841 49.2959C44.5364 48.9831 44.8835 48.5406 45.0796 48.0267C45.457 47.0252 45.9972 46.0929 46.6783 45.2674C47.0222 44.8375 47.2296 44.3146 47.274 43.7659C47.3183 43.2172 47.1975 42.6678 46.927 42.1883C46.9078 42.1454 46.8978 42.099 46.8978 42.0521C46.8978 42.0051 46.9078 41.9587 46.927 41.9159C46.9367 41.8701 46.9566 41.8271 46.9853 41.7901C47.0141 41.7532 47.0508 41.7233 47.0928 41.7027L49.5917 40.2579C49.6498 40.2417 49.7112 40.2417 49.7693 40.2579C49.8286 40.2586 49.8867 40.2742 49.9384 40.3032C49.9901 40.3321 50.0338 40.3735 50.0654 40.4237C50.345 40.902 50.7626 41.2846 51.2635 41.5213C51.7644 41.758 52.3251 41.8377 52.8721 41.7501C53.9147 41.5725 54.9797 41.5725 56.0223 41.7501C56.573 41.8244 57.1332 41.7308 57.6298 41.4815C58.1264 41.2321 58.5361 40.8387 58.8053 40.3526C58.8285 40.3136 58.8592 40.2795 58.8956 40.2523C58.932 40.2252 58.9734 40.2056 59.0175 40.1946C59.0615 40.1835 59.1073 40.1814 59.1522 40.1882C59.1971 40.195 59.2402 40.2106 59.2791 40.2342L61.7779 41.679C61.8199 41.6996 61.8567 41.7295 61.8854 41.7665C61.9141 41.8034 61.9341 41.8464 61.9437 41.8922C61.963 41.935 61.9729 41.9814 61.9729 42.0284C61.9729 42.0753 61.963 42.1218 61.9437 42.1646C61.6711 42.6413 61.549 43.1893 61.5934 43.7367C61.6378 44.2841 61.8465 44.8052 62.1924 45.2318C62.8653 46.0654 63.401 47.0009 63.7793 48.0031C63.966 48.5265 64.307 48.981 64.7574 49.3066C65.2077 49.6322 65.7463 49.8136 66.3018 49.8268C66.3489 49.8252 66.3959 49.8332 66.4397 49.8505C66.4836 49.8678 66.5234 49.8939 66.5567 49.9272C66.5901 49.9606 66.6162 50.0004 66.6334 50.0442C66.6507 50.0881 66.6588 50.135 66.6571 50.1821V53.0244Z" fill="white"/>
<path d="M54.4235 46.2031C53.3601 46.2031 52.3206 46.5185 51.4364 47.1093C50.5523 47.7 49.8631 48.5398 49.4562 49.5222C49.0492 50.5047 48.9428 51.5857 49.1502 52.6287C49.3577 53.6716 49.8698 54.6297 50.6217 55.3816C51.3736 56.1335 52.3316 56.6456 53.3746 56.8531C54.4176 57.0605 55.4986 56.954 56.4811 56.5471C57.4635 56.1402 58.3032 55.451 58.894 54.5668C59.4848 53.6827 59.8001 52.6431 59.8001 51.5797C59.8001 50.1538 59.2337 48.7862 58.2254 47.7779C57.2171 46.7696 55.8495 46.2031 54.4235 46.2031ZM54.4235 54.5878C53.8286 54.5878 53.247 54.4114 52.7523 54.0809C52.2577 53.7503 51.8721 53.2805 51.6444 52.7309C51.4168 52.1812 51.3572 51.5764 51.4733 50.9929C51.5893 50.4094 51.8758 49.8734 52.2965 49.4527C52.7172 49.032 53.2532 48.7455 53.8367 48.6295C54.4202 48.5134 55.025 48.573 55.5747 48.8007C56.1243 49.0283 56.5941 49.4139 56.9246 49.9086C57.2552 50.4032 57.4316 50.9848 57.4316 51.5797C57.4253 52.3734 57.1057 53.1325 56.5422 53.6915C55.9788 54.2505 55.2172 54.5642 54.4235 54.5641V54.5878Z" fill="white"/>
</svg>
