<svg width="66" height="72" viewBox="0 0 66 72" fill="none" xmlns="http://www.w3.org/2000/svg">
<path d="M64.971 11.0817C63.4749 5.53926 52.3397 0.0872803 32.8611 0.0872803C13.3825 0.0872803 2.24602 5.53926 0.751245 11.0817C0.642722 11.2716 0.562622 11.4796 0.562622 11.7147V12.3607V27.218V27.864V28.5099V42.7213V43.3672V44.0132V59.5165C0.562622 59.7258 0.618176 59.9235 0.713779 60.0992C2.23956 66.4232 15.8902 71.1439 32.8611 71.1439C49.7933 71.1439 63.4219 66.4426 64.9981 60.1418C65.1014 59.957 65.1596 59.7439 65.1596 59.5165V44.0132V43.3672V42.7213V28.5099V27.864V27.218V12.3607V11.7147C65.1596 11.4796 65.0795 11.2716 64.971 11.0817ZM62.4736 43.9938C62.4375 44.1502 62.3871 44.3052 62.3238 44.4628C62.2721 44.5907 62.2088 44.7186 62.139 44.8465C62.0525 45.0054 61.9556 45.1643 61.8406 45.3232C61.7553 45.4434 61.6584 45.5623 61.5577 45.6811C61.4143 45.8504 61.2618 46.0196 61.0887 46.1875C60.984 46.2896 60.8691 46.3904 60.7528 46.4925C60.5409 46.6772 60.32 46.8607 60.0732 47.0428C59.9673 47.1216 59.8536 47.1979 59.7412 47.2754C59.4492 47.4769 59.1443 47.6772 58.8097 47.8735C58.7219 47.9265 58.6275 47.9769 58.5358 48.0286C58.1508 48.2456 57.749 48.4614 57.3149 48.6707C57.2594 48.6978 57.2012 48.7236 57.1444 48.7495C56.6599 48.9781 56.1535 49.2029 55.6122 49.42C55.5967 49.4264 55.5812 49.4316 55.5656 49.4381C52.6317 50.6099 48.8786 51.5956 44.5054 52.2416C44.4834 52.2442 44.4614 52.2467 44.4395 52.2506C43.5894 52.3759 42.7173 52.487 41.822 52.5852C41.676 52.6007 41.5223 52.6111 41.375 52.6266C40.5934 52.708 39.8027 52.7829 38.9888 52.8423C38.6167 52.8695 38.2265 52.8824 37.848 52.9056C37.2356 52.9418 36.6297 52.9819 36.0018 53.0038C34.976 53.0361 33.9295 53.0568 32.8611 53.0568C31.7927 53.0568 30.7462 53.0361 29.7191 53C29.0912 52.978 28.4853 52.9366 27.8729 52.9018C27.4944 52.8798 27.1042 52.8656 26.7321 52.8385C25.9182 52.779 25.1276 52.7041 24.3459 52.6227C24.1987 52.6072 24.0449 52.5969 23.8989 52.5814C23.0036 52.4832 22.1315 52.3708 21.2815 52.2467C21.2595 52.2442 21.2375 52.2416 21.2156 52.2377C16.8423 51.5917 13.0893 50.606 10.1553 49.4342C10.1398 49.429 10.1243 49.4226 10.1088 49.4161C9.56744 49.1991 9.05971 48.9743 8.57652 48.7456C8.52097 48.7185 8.46154 48.6926 8.40599 48.6668C7.97189 48.4575 7.5701 48.243 7.1851 48.0247C7.09467 47.973 6.99906 47.9226 6.91121 47.8697C6.5766 47.6733 6.2717 47.473 5.97972 47.2715C5.86862 47.194 5.75363 47.1177 5.64769 47.0389C5.40093 46.8568 5.18001 46.6733 4.96813 46.4886C4.85315 46.3878 4.73688 46.287 4.63223 46.1837C4.45911 46.0157 4.30666 45.8478 4.16326 45.6772C4.06249 45.5584 3.96559 45.4395 3.88032 45.3194C3.76663 45.1605 3.66974 45.0015 3.58188 44.8426C3.51212 44.7147 3.45011 44.5868 3.39714 44.4589C3.33383 44.3026 3.28345 44.1463 3.24727 43.99C3.19947 43.7845 3.1465 43.5753 3.1465 43.3672C3.1465 43.2213 3.1633 43.0753 3.18655 42.9306C3.21885 42.7355 3.20076 42.5404 3.1465 42.3557V32.7643C3.18267 32.7979 3.22789 32.8302 3.26536 32.8638C3.547 33.1118 3.83381 33.3586 4.1568 33.5963C9.02353 37.277 18.7557 40.1374 32.8611 40.1374C46.9071 40.1374 56.6147 37.3003 61.5021 33.6415C61.8923 33.3573 62.2437 33.064 62.5744 32.7656L62.5757 32.7643V42.3557C62.5214 42.5404 62.5034 42.7355 62.5357 42.9306C62.5602 43.0753 62.5757 43.2213 62.5757 43.3672C62.5757 43.5753 62.5227 43.7845 62.4736 43.9938ZM62.5757 17.261V26.8524C62.5214 27.0371 62.5034 27.2322 62.5357 27.4273C62.5602 27.572 62.5757 27.718 62.5757 27.864C62.5757 28.072 62.5227 28.2813 62.4736 28.4906C62.4375 28.6469 62.3871 28.8019 62.3238 28.9595C62.2721 29.0874 62.2088 29.2153 62.139 29.3432C62.0525 29.5022 61.9556 29.6611 61.8406 29.82C61.7553 29.9401 61.6584 30.059 61.5577 30.1778C61.4143 30.3471 61.2618 30.5163 61.0887 30.6843C60.984 30.7863 60.8691 30.8871 60.7528 30.9892C60.5409 31.1739 60.32 31.3574 60.0732 31.5395C59.9673 31.6184 59.8536 31.6946 59.7412 31.7721C59.4492 31.9736 59.1443 32.1739 58.8097 32.3703C58.7219 32.4232 58.6275 32.4736 58.5358 32.5253C58.1508 32.7423 57.749 32.9581 57.3149 33.1674C57.2594 33.1945 57.2012 33.2204 57.1444 33.2462C56.6599 33.4749 56.1535 33.6997 55.6122 33.9167C55.5967 33.9232 55.5812 33.9283 55.5656 33.9348C52.6317 35.1066 48.8786 36.0923 44.5054 36.7383C44.4834 36.7409 44.4614 36.7435 44.4395 36.7474C43.5894 36.8727 42.7173 36.9838 41.822 37.082C41.676 37.0975 41.5223 37.1078 41.375 37.1233C40.5934 37.2047 39.8027 37.2796 38.9888 37.3391C38.6167 37.3662 38.2265 37.3791 37.848 37.4024C37.2356 37.4385 36.6297 37.4786 36.0018 37.5006C34.976 37.5329 33.9295 37.5535 32.8611 37.5535C31.7927 37.5535 30.7462 37.5329 29.7191 37.4967C29.0912 37.4747 28.4853 37.4334 27.8729 37.3985C27.4944 37.3765 27.1042 37.3623 26.7321 37.3352C25.9182 37.2758 25.1276 37.2008 24.3459 37.1194C24.1987 37.1039 24.0449 37.0936 23.8989 37.0781C23.0036 36.9799 22.1315 36.8675 21.2815 36.7435C21.2595 36.7409 21.2375 36.7383 21.2156 36.7344C16.8423 36.0885 13.0893 35.1027 10.1553 33.9309C10.1398 33.9258 10.1243 33.9193 10.1088 33.9128C9.56744 33.6958 9.05971 33.471 8.57652 33.2423C8.52097 33.2152 8.46154 33.1894 8.40599 33.1635C7.97189 32.9542 7.5701 32.7398 7.1851 32.5214C7.09467 32.4697 6.99906 32.4194 6.91121 32.3664C6.5766 32.17 6.2717 31.9698 5.97972 31.7682C5.86862 31.6907 5.75363 31.6145 5.64769 31.5357C5.40093 31.3535 5.18001 31.17 4.96813 30.9853C4.85315 30.8845 4.73688 30.7838 4.63223 30.6804C4.45911 30.5125 4.30666 30.3445 4.16326 30.174C4.06249 30.0551 3.96559 29.9362 3.88032 29.8161C3.76663 29.6572 3.66974 29.4983 3.58188 29.3394C3.51212 29.2115 3.45011 29.0836 3.39714 28.9557C3.33383 28.7993 3.28345 28.643 3.24727 28.4867C3.19947 28.2813 3.1465 28.072 3.1465 27.864C3.1465 27.718 3.1633 27.572 3.18655 27.4273C3.21885 27.2322 3.20076 27.0371 3.1465 26.8524V17.261C3.30153 17.4019 3.47853 17.5401 3.64648 17.6796C3.7395 17.7571 3.82606 17.8347 3.92425 17.9122C4.31183 18.2171 4.73042 18.5181 5.18389 18.8114C5.2782 18.8721 5.38414 18.9315 5.48233 18.9922C5.86216 19.2287 6.26395 19.4599 6.68641 19.6873C6.84274 19.7713 6.99906 19.854 7.16056 19.9366C7.63211 20.1769 8.12693 20.4108 8.64758 20.6369C8.73285 20.6743 8.81036 20.7131 8.89692 20.7493C9.50284 21.0064 10.1462 21.2518 10.8155 21.4895C11.0002 21.5554 11.194 21.6175 11.3839 21.682C11.9162 21.8616 12.4665 22.0335 13.0363 22.2001C13.2417 22.2595 13.4433 22.3216 13.6538 22.3784C14.4096 22.5877 15.19 22.7867 16.009 22.9701C16.1214 22.9959 16.2429 23.0166 16.3566 23.0412C17.0788 23.1988 17.8281 23.3448 18.5981 23.4817C18.8591 23.5282 19.1239 23.5722 19.3901 23.6161C20.1226 23.7362 20.8771 23.846 21.6509 23.9468C21.8499 23.9727 22.0398 24.0024 22.2414 24.0269C23.2026 24.1432 24.1974 24.2427 25.2193 24.3279C25.4712 24.3486 25.7335 24.3641 25.9893 24.3822C26.8071 24.4416 27.643 24.4907 28.4982 24.5295C28.8096 24.5437 29.1196 24.5579 29.4375 24.5695C30.5511 24.607 31.6854 24.6341 32.8611 24.6341C34.0368 24.6341 35.1711 24.607 36.2847 24.5695C36.6013 24.5579 36.9113 24.5437 37.224 24.5295C38.0792 24.4907 38.9151 24.4416 39.7329 24.3822C39.9887 24.3628 40.2497 24.3486 40.5029 24.3279C41.5248 24.244 42.5196 24.1432 43.4808 24.0269C43.6824 24.0024 43.8723 23.9727 44.0713 23.9468C44.8451 23.846 45.5983 23.7362 46.3322 23.6161C46.5983 23.5722 46.8631 23.5282 47.1241 23.4817C47.8941 23.3448 48.6434 23.1988 49.3656 23.0412C49.4793 23.0166 49.6008 22.9947 49.7132 22.9701C50.5322 22.7867 51.3126 22.5864 52.0684 22.3784C52.2789 22.3203 52.4805 22.2595 52.6859 22.2001C53.2557 22.0335 53.806 21.8616 54.3383 21.682C54.5282 21.6175 54.722 21.5554 54.9068 21.4895C55.576 21.2518 56.2207 21.0064 56.8253 20.7493C56.9118 20.7131 56.9894 20.6743 57.0746 20.6369C57.5953 20.4095 58.0901 20.1769 58.5617 19.9366C58.7231 19.854 58.8808 19.7713 59.0358 19.6873C59.4583 19.4612 59.8601 19.2299 60.2399 18.9922C60.3381 18.9315 60.444 18.8721 60.5383 18.8114C60.9918 18.5181 61.4104 18.2184 61.798 17.9122C61.8949 17.8347 61.9814 17.7571 62.0757 17.6796C62.2437 17.5401 62.4207 17.4019 62.5757 17.261ZM32.8611 2.67116C50.3733 2.67116 62.5757 7.7769 62.5757 12.3607C62.5757 16.9445 50.3733 22.0502 32.8611 22.0502C15.3489 22.0502 3.1465 16.9445 3.1465 12.3607C3.1465 7.7769 15.3489 2.67116 32.8611 2.67116ZM62.5757 59.1328C62.5576 59.1896 62.5447 59.2478 62.5344 59.3072C61.8018 63.776 49.7028 68.5601 32.8611 68.5601C16.0194 68.5601 3.92037 63.776 3.18784 59.3072C3.17751 59.2491 3.1633 59.1922 3.1465 59.138V48.2676C3.18267 48.3012 3.22789 48.3335 3.26536 48.3671C3.547 48.6151 3.83381 48.8619 4.1568 49.0996C9.02353 52.7803 18.7557 55.6407 32.8611 55.6407C46.9071 55.6407 56.6147 52.8036 61.5021 49.1448C61.8923 48.8606 62.2437 48.5673 62.5744 48.2689L62.5757 48.2676V59.1328Z" fill="white"/>
</svg>
