<svg width="91" height="74" viewBox="0 0 91 74" fill="none" xmlns="http://www.w3.org/2000/svg">
<path d="M42.2667 16.9568H47.8827V22.5728H42.2667V16.9568ZM18.3988 16.9568C17.6238 16.9568 16.9948 17.5858 16.9948 18.3608C16.9948 19.1358 17.6238 19.7648 18.3988 19.7648C19.1738 19.7648 19.8028 19.1358 19.8028 18.3608C19.8028 17.5858 19.1738 16.9568 18.3988 16.9568ZM60.5186 70.3086H56.3067V64.6926H33.8428V70.3086H29.6308C28.8558 70.3086 28.2268 70.9376 28.2268 71.7126C28.2268 72.4876 28.8558 73.1165 29.6308 73.1165H60.5186C61.2936 73.1165 61.9226 72.4876 61.9226 71.7126C61.9226 70.9376 61.2936 70.3086 60.5186 70.3086ZM90.0025 8.53285V53.4606C90.0025 58.1135 86.2314 61.8846 81.5785 61.8846H8.57087C3.91804 61.8846 0.146912 58.1135 0.146912 53.4606V8.53285C0.146912 3.88001 3.91804 0.108887 8.57087 0.108887H81.5785C86.2314 0.108887 90.0025 3.88001 90.0025 8.53285ZM75.8671 17.4454C75.5301 15.8392 74.2188 14.5532 72.6098 14.2331C70.414 13.8006 68.468 15.0755 67.7998 16.9568H50.6907V14.1488H39.4587V16.9568H22.3525C21.6842 15.0755 19.7354 13.8006 17.5424 14.2331C15.9334 14.5504 14.6221 15.8392 14.2851 17.4454C13.7095 20.172 15.7734 22.5728 18.3988 22.5728C20.2296 22.5728 21.774 21.3962 22.3525 19.7648H39.4587V20.3938C27.1373 22.9125 17.7109 33.4734 17.0341 46.3564C16.992 47.1623 17.6322 47.8447 18.4409 47.8447C19.1794 47.8447 19.8 47.2718 19.8365 46.5333C20.4234 35.1189 28.6367 25.7262 39.4587 23.2579V25.3808H50.6907V23.2551C61.5127 25.7262 69.726 35.1189 70.3129 46.5305C70.3522 47.2718 70.97 47.8447 71.7085 47.8447C72.5172 47.8447 73.1574 47.1623 73.1153 46.3564C72.4385 33.4734 63.0121 22.9125 50.6907 20.3938V19.7648H67.7969C68.3782 21.3962 69.9198 22.5728 71.7506 22.5728C74.3761 22.5728 76.4399 20.172 75.8671 17.4454ZM71.7506 16.9568C70.9756 16.9568 70.3466 17.5858 70.3466 18.3608C70.3466 19.1358 70.9756 19.7648 71.7506 19.7648C72.5256 19.7648 73.1546 19.1358 73.1546 18.3608C73.1546 17.5858 72.5256 16.9568 71.7506 16.9568Z" fill="white"/>
</svg>
