<svg width="101" height="82" viewBox="0 0 101 82" fill="none" xmlns="http://www.w3.org/2000/svg">
<path d="M47.5948 18.9093H53.8503V25.1648H47.5948V18.9093ZM21.0089 18.9093C20.1457 18.9093 19.4451 19.6099 19.4451 20.4732C19.4451 21.3364 20.1457 22.0371 21.0089 22.0371C21.8722 22.0371 22.5728 21.3364 22.5728 20.4732C22.5728 19.6099 21.8722 18.9093 21.0089 18.9093ZM67.9251 78.3365H63.2335V72.081H38.2115V78.3365H33.5199C32.6567 78.3365 31.956 79.0371 31.956 79.9004C31.956 80.7636 32.6567 81.4642 33.5199 81.4642H67.9251C68.7884 81.4642 69.489 80.7636 69.489 79.9004C69.489 79.0371 68.7884 78.3365 67.9251 78.3365ZM100.766 9.52606V59.57C100.766 64.7527 96.5659 68.9533 91.3832 68.9533H10.0618C4.87914 68.9533 0.678574 64.7527 0.678574 59.57V9.52606C0.678574 4.34339 4.87914 0.142822 10.0618 0.142822H91.3832C96.5659 0.142822 100.766 4.34339 100.766 9.52606ZM85.0214 19.4535C84.6461 17.6645 83.1854 16.232 81.3932 15.8754C78.9473 15.3937 76.7798 16.8137 76.0354 18.9093H56.978V15.7816H44.467V18.9093H25.4128C24.6684 16.8137 22.4977 15.3937 20.055 15.8754C18.2628 16.2288 16.8021 17.6645 16.4268 19.4535C15.7856 22.4906 18.0845 25.1648 21.0089 25.1648C23.0482 25.1648 24.7685 23.8543 25.4128 22.0371H44.467V22.7377C30.7425 25.5433 20.2426 37.3067 19.4888 51.6568C19.4419 52.5545 20.1551 53.3145 21.0558 53.3145C21.8784 53.3145 22.5697 52.6765 22.6103 51.8539C23.264 39.1396 32.4127 28.6773 44.467 25.928V28.2925H56.978V25.9248C69.0324 28.6773 78.181 39.1396 78.8347 51.8507C78.8785 52.6765 79.5666 53.3145 80.3892 53.3145C81.29 53.3145 82.0031 52.5545 81.9562 51.6568C81.2024 37.3067 70.7026 25.5433 56.978 22.7377V22.0371H76.0323C76.6797 23.8543 78.3968 25.1648 80.4361 25.1648C83.3606 25.1648 85.6595 22.4906 85.0214 19.4535ZM80.4361 18.9093C79.5729 18.9093 78.8723 19.6099 78.8723 20.4732C78.8723 21.3364 79.5729 22.0371 80.4361 22.0371C81.2994 22.0371 82 21.3364 82 20.4732C82 19.6099 81.2994 18.9093 80.4361 18.9093Z" fill="white"/>
</svg>
