<svg width="101" height="82" viewBox="0 0 101 82" fill="none" xmlns="http://www.w3.org/2000/svg">
<path d="M67.568 78.3365H62.8764V72.081H37.8544V78.3365H33.1628C32.2995 78.3365 31.5989 79.0371 31.5989 79.9004C31.5989 80.7636 32.2995 81.4642 33.1628 81.4642H67.568C68.4312 81.4642 69.1319 80.7636 69.1319 79.9004C69.1319 79.0371 68.4312 78.3365 67.568 78.3365ZM100.409 9.52606V59.57C100.409 64.7527 96.2088 68.9533 91.0261 68.9533H9.70465C4.52198 68.9533 0.321411 64.7527 0.321411 59.57V9.52606C0.321411 4.34339 4.52198 0.142822 9.70465 0.142822H91.0261C96.2088 0.142822 100.409 4.34339 100.409 9.52606Z" fill="white"/>
<rect x="14.5701" y="14.5811" width="11.5" height="3.28571" rx="1.64286" fill="black"/>
<rect x="18.6772" y="18.6882" width="11.5" height="3.28571" rx="1.64286" fill="black"/>
<rect x="26.0701" y="31.0096" width="11.5" height="3.28571" rx="1.64286" fill="black"/>
<rect x="18.6772" y="35.1167" width="11.5" height="3.28571" rx="1.64286" fill="black"/>
<rect x="14.5701" y="39.2239" width="11.5" height="3.28571" rx="1.64286" fill="black"/>
<rect x="27.713" y="14.5811" width="26.2857" height="3.28571" rx="1.64286" fill="black"/>
<rect x="31.8201" y="18.6882" width="33.6786" height="3.28571" rx="1.64286" fill="black"/>
<rect x="39.213" y="31.0096" width="22.1786" height="3.28571" rx="1.64286" fill="black"/>
<rect x="31.8201" y="35.1167" width="22.1786" height="3.28571" rx="1.64286" fill="black"/>
<rect x="26.0701" y="22.7953" width="24.6429" height="3.28571" rx="1.64286" fill="black"/>
<rect x="26.0701" y="26.9025" width="28.75" height="3.28571" rx="1.64286" fill="black"/>
</svg>
