<svg width="72" height="72" viewBox="0 0 72 72" fill="none" xmlns="http://www.w3.org/2000/svg">
<path d="M63.7284 0.0872803H56.8519V13.8402H0.694229V71.1439H63.7284C68.1511 71.1439 71.7509 67.5441 71.7509 63.1214V8.10981C71.7509 3.6871 68.1511 0.0872803 63.7284 0.0872803ZM60.2901 57.391V59.6832H12.155V52.8067H56.8519V57.391H60.2901ZM56.8519 29.8852V32.1774H51.1215V48.2224H56.8519V50.5146H9.86283V61.9753H62.5823V57.391H63.7284C64.1203 57.391 64.5043 57.4312 64.8744 57.5068V61.9753C64.8744 63.2395 63.8464 64.2675 62.5823 64.2675H7.57068V29.8852H56.8519ZM7.57068 27.5931V20.7166H56.8519V27.5931H7.57068ZM56.8519 34.4695V45.9303H53.4137V34.4695H56.8519ZM63.7284 68.8518H2.98638V16.1323H56.8519V18.4245H5.27853V66.5596H62.5823C65.1105 66.5596 67.1666 64.5036 67.1666 61.9753V58.5669C68.5499 59.6144 69.4587 61.2579 69.4587 63.1214C69.4587 66.2812 66.8881 68.8518 63.7284 68.8518ZM69.4587 57.5114C68.0021 56.0238 65.9712 55.0989 63.7284 55.0989H59.1441V2.37943H63.7284C66.8881 2.37943 69.4587 4.95008 69.4587 8.10981V57.5114Z" fill="white"/>
<path d="M12.155 23.0088H9.86284V25.3009H12.155V23.0088Z" fill="white"/>
<path d="M16.7393 23.0088H14.4471V25.3009H16.7393V23.0088Z" fill="white"/>
<path d="M21.3236 23.0088H19.0314V25.3009H21.3236V23.0088Z" fill="white"/>
<path d="M28.2 32.1774H9.86284V48.2224H28.2V32.1774ZM25.9079 45.9303H12.155V34.4695H25.9079V45.9303Z" fill="white"/>
<path d="M48.8294 32.1774H30.4922V48.2224H48.8294V32.1774ZM46.5372 45.9303H32.7843V34.4695H46.5372V45.9303Z" fill="white"/>
<path d="M40.8069 39.0538H38.5147V41.346H40.8069V39.0538Z" fill="white"/>
<path d="M20.1775 39.0538H17.8854V41.346H20.1775V39.0538Z" fill="white"/>
</svg>
