<svg width="524" height="184" viewBox="0 0 524 184" fill="none" xmlns="http://www.w3.org/2000/svg">
<path d="M46.4219 29.2187H48.4219V27.2187H46.4219V29.2187ZM46.4219 41.0312V43.0312H48.4219V41.0312H46.4219ZM11.0781 41.0312H9.07812V43.0312H11.0781V41.0312ZM11.0781 29.2187V27.2187H9.07812V29.2187H11.0781ZM15.9062 1.74998H17.9062V-0.250015H15.9062V1.74998ZM15.9062 70V72H17.9062V70H15.9062ZM0.625 70H-1.375V72H0.625V70ZM0.625 1.74998V-0.250015H-1.375V1.74998H0.625ZM56.9688 1.74998H58.9688V-0.250015H56.9688V1.74998ZM56.9688 70V72H58.9688V70H56.9688ZM41.7344 70H39.7344V72H41.7344V70ZM41.7344 1.74998V-0.250015H39.7344V1.74998H41.7344ZM44.4219 29.2187V41.0312H48.4219V29.2187H44.4219ZM46.4219 39.0312H11.0781V43.0312H46.4219V39.0312ZM13.0781 41.0312V29.2187H9.07812V41.0312H13.0781ZM11.0781 31.2187H46.4219V27.2187H11.0781V31.2187ZM13.9062 1.74998V70H17.9062V1.74998H13.9062ZM15.9062 68H0.625V72H15.9062V68ZM2.625 70V1.74998H-1.375V70H2.625ZM0.625 3.74998H15.9062V-0.250015H0.625V3.74998ZM54.9688 1.74998V70H58.9688V1.74998H54.9688ZM56.9688 68H41.7344V72H56.9688V68ZM43.7344 70V1.74998H39.7344V70H43.7344ZM41.7344 3.74998H56.9688V-0.250015H41.7344V3.74998ZM124.319 58.1875H126.319V56.1875H124.319V58.1875ZM124.319 70V72H126.319V70H124.319ZM87.9906 70H85.9906V72H87.9906V70ZM87.9906 58.1875V56.1875H85.9906V58.1875H87.9906ZM93.1937 1.74998H95.1937V-0.250015H93.1937V1.74998ZM93.1937 70V72H95.1937V70H93.1937ZM77.9125 70H75.9125V72H77.9125V70ZM77.9125 1.74998V-0.250015H75.9125V1.74998H77.9125ZM119.631 29.2187H121.631V27.2187H119.631V29.2187ZM119.631 40.6562V42.6562H121.631V40.6562H119.631ZM87.9906 40.6562H85.9906V42.6562H87.9906V40.6562ZM87.9906 29.2187V27.2187H85.9906V29.2187H87.9906ZM124.366 1.74998H126.366V-0.250015H124.366V1.74998ZM124.366 13.6094V15.6094H126.366V13.6094H124.366ZM87.9906 13.6094H85.9906V15.6094H87.9906V13.6094ZM87.9906 1.74998V-0.250015H85.9906V1.74998H87.9906ZM122.319 58.1875V70H126.319V58.1875H122.319ZM124.319 68H87.9906V72H124.319V68ZM89.9906 70V58.1875H85.9906V70H89.9906ZM87.9906 60.1875H124.319V56.1875H87.9906V60.1875ZM91.1937 1.74998V70H95.1937V1.74998H91.1937ZM93.1937 68H77.9125V72H93.1937V68ZM79.9125 70V1.74998H75.9125V70H79.9125ZM77.9125 3.74998H93.1937V-0.250015H77.9125V3.74998ZM117.631 29.2187V40.6562H121.631V29.2187H117.631ZM119.631 38.6562H87.9906V42.6562H119.631V38.6562ZM89.9906 40.6562V29.2187H85.9906V40.6562H89.9906ZM87.9906 31.2187H119.631V27.2187H87.9906V31.2187ZM122.366 1.74998V13.6094H126.366V1.74998H122.366ZM124.366 11.6094H87.9906V15.6094H124.366V11.6094ZM89.9906 13.6094V1.74998H85.9906V13.6094H89.9906ZM87.9906 3.74998H124.366V-0.250015H87.9906V3.74998ZM197.716 1.74998H199.716V-0.250015H197.716V1.74998ZM197.716 70V72H199.716V70H197.716ZM182.481 70L180.755 71.0092L181.334 72H182.481V70ZM156.7 25.8906L158.427 24.8814L154.7 18.5054V25.8906H156.7ZM156.7 70V72H158.7V70H156.7ZM141.419 70H139.419V72H141.419V70ZM141.419 1.74998V-0.250015H139.419V1.74998H141.419ZM156.7 1.74998L158.426 0.739393L157.847 -0.250015H156.7V1.74998ZM182.528 45.8594L180.802 46.8699L184.528 53.233V45.8594H182.528ZM182.528 1.74998V-0.250015H180.528V1.74998H182.528ZM195.716 1.74998V70H199.716V1.74998H195.716ZM197.716 68H182.481V72H197.716V68ZM184.208 68.9908L158.427 24.8814L154.973 26.8998L180.755 71.0092L184.208 68.9908ZM154.7 25.8906V70H158.7V25.8906H154.7ZM156.7 68H141.419V72H156.7V68ZM143.419 70V1.74998H139.419V70H143.419ZM141.419 3.74998H156.7V-0.250015H141.419V3.74998ZM154.974 2.76058L180.802 46.8699L184.254 44.8488L158.426 0.739393L154.974 2.76058ZM184.528 45.8594V1.74998H180.528V45.8594H184.528ZM182.528 3.74998H197.716V-0.250015H182.528V3.74998ZM218.613 1.74998V-0.250015H216.613V1.74998H218.613ZM258.362 4.09373L257.604 5.94435L257.609 5.9465L258.362 4.09373ZM263.331 38.4531L262.106 36.872L262.096 36.8805L263.331 38.4531ZM255.644 42.625L254.963 40.7442L254.819 40.7966L254.684 40.8705L255.644 42.625ZM250.675 45.3437V47.3437H251.186L251.635 47.0983L250.675 45.3437ZM228.363 45.3437L226.363 45.3595L226.378 47.3437H228.363V45.3437ZM228.269 33.4844V31.4844H226.253L226.269 33.5002L228.269 33.4844ZM253.909 28.8437L252.136 27.9199L252.132 27.927L252.128 27.9342L253.909 28.8437ZM250.441 14.8281L249.488 16.5867L249.51 16.5984L249.532 16.6096L250.441 14.8281ZM233.894 13.6094V11.6094H231.894V13.6094H233.894ZM233.894 70V72H235.894V70H233.894ZM218.613 70H216.613V72H218.613V70ZM256.394 70L254.609 70.9021L255.164 72H256.394V70ZM241.066 39.6719L241.06 37.6719L237.819 37.6813L239.281 40.574L241.066 39.6719ZM257.191 39.625L258.962 38.696L258.398 37.6215L257.185 37.625L257.191 39.625ZM272.753 69.2969H274.753V68.8042L274.524 68.3679L272.753 69.2969ZM272.753 70V72H274.753V70H272.753ZM218.613 3.74998H244.816V-0.250015H218.613V3.74998ZM244.816 3.74998C249.841 3.74998 254.087 4.50296 257.604 5.94435L259.121 2.24312C255.013 0.559509 250.228 -0.250015 244.816 -0.250015V3.74998ZM257.609 5.9465C261.132 7.37848 263.749 9.45559 265.563 12.1484L268.881 9.91403C266.569 6.48188 263.28 3.93399 259.116 2.24096L257.609 5.9465ZM265.563 12.1484C267.359 14.8146 268.316 18.185 268.316 22.375H272.316C272.316 17.565 271.21 13.3729 268.881 9.91403L265.563 12.1484ZM268.316 22.375C268.316 25.9167 267.739 28.8 266.673 31.0953L270.302 32.7797C271.673 29.8249 272.316 26.3333 272.316 22.375H268.316ZM266.673 31.0953C265.585 33.4398 264.065 35.3552 262.106 36.872L264.556 40.0342C267.035 38.1135 268.953 35.6852 270.302 32.7797L266.673 31.0953ZM262.096 36.8805C260.095 38.4525 257.725 39.7454 254.963 40.7442L256.324 44.5057C259.438 43.3796 262.193 41.8912 264.567 40.0257L262.096 36.8805ZM254.684 40.8705L249.715 43.5892L251.635 47.0983L256.604 44.3795L254.684 40.8705ZM250.675 43.3437H228.363V47.3437H250.675V43.3437ZM230.362 45.3279L230.269 33.4686L226.269 33.5002L226.363 45.3595L230.362 45.3279ZM228.269 35.4844H244.863V31.4844H228.269V35.4844ZM244.863 35.4844C247.369 35.4844 249.612 35.0396 251.487 34.0242L249.582 30.507C248.456 31.1167 246.919 31.4844 244.863 31.4844V35.4844ZM251.487 34.0242C253.33 33.0261 254.75 31.5953 255.691 29.7533L252.128 27.9342C251.569 29.0297 250.739 29.8802 249.582 30.507L251.487 34.0242ZM255.683 29.7676C256.638 27.9346 257.081 25.8568 257.081 23.5937H253.081C253.081 25.3306 252.743 26.7529 252.136 27.9199L255.683 29.7676ZM257.081 23.5937C257.081 21.2793 256.642 19.1674 255.683 17.3261L252.136 19.1739C252.739 20.3325 253.081 21.7832 253.081 23.5937H257.081ZM255.683 17.3261C254.706 15.4508 253.245 14.0135 251.35 13.0466L249.532 16.6096C250.699 17.2052 251.55 18.0491 252.136 19.1739L255.683 17.3261ZM251.393 13.0695C249.522 12.0561 247.296 11.6094 244.816 11.6094V15.6094C246.835 15.6094 248.359 15.9751 249.488 16.5867L251.393 13.0695ZM244.816 11.6094H233.894V15.6094H244.816V11.6094ZM231.894 13.6094V70H235.894V13.6094H231.894ZM233.894 68H218.613V72H233.894V68ZM220.613 70V1.74998H216.613V70H220.613ZM258.179 69.0978L242.851 38.7697L239.281 40.574L254.609 70.9021L258.179 69.0978ZM241.071 41.6719L257.196 41.625L257.185 37.625L241.06 37.6719L241.071 41.6719ZM255.419 40.5539L270.982 70.2258L274.524 68.3679L258.962 38.696L255.419 40.5539ZM270.753 69.2969V70H274.753V69.2969H270.753ZM272.753 68H256.394V72H272.753V68ZM306.541 1.74998H308.541V-0.250015H306.541V1.74998ZM306.541 70V72H308.541V70H306.541ZM291.306 70H289.306V72H291.306V70ZM291.306 1.74998V-0.250015H289.306V1.74998H291.306ZM304.541 1.74998V70H308.541V1.74998H304.541ZM306.541 68H291.306V72H306.541V68ZM293.306 70V1.74998H289.306V70H293.306ZM291.306 3.74998H306.541V-0.250015H291.306V3.74998ZM366.062 59.3125L367.305 57.745L365.993 56.7055L364.738 57.8135L366.062 59.3125ZM384.812 74.1719L386.11 75.6935L387.961 74.1151L386.055 72.6044L384.812 74.1719ZM375.25 82.3281L373.994 83.8848L375.286 84.9264L376.548 83.8498L375.25 82.3281ZM356.828 67.4687L355.504 65.9697L353.728 67.5381L355.572 69.0254L356.828 67.4687ZM367.891 68.6406L368.68 70.4781L368.688 70.4747L367.891 68.6406ZM344.125 68.6406L343.328 70.4747L343.334 70.4777L343.341 70.4806L344.125 68.6406ZM334.75 61.9375L333.266 63.2781L333.274 63.2868L334.75 61.9375ZM328.656 20.4062L330.545 21.0644L330.546 21.06L328.656 20.4062ZM334.703 9.81248L333.219 8.47189L333.211 8.48077L334.703 9.81248ZM344.031 3.15623L344.815 4.99618L344.822 4.9933L344.829 4.99038L344.031 3.15623ZM367.844 3.15623L367.046 4.99038L367.053 4.9933L367.06 4.99618L367.844 3.15623ZM383.266 20.4062L381.375 21.06L381.378 21.0685L381.382 21.0771L383.266 20.4062ZM369.016 25.0937L367.063 25.5252L367.066 25.5385L367.069 25.5518L369.016 25.0937ZM366.297 18.3437L364.624 19.4398L364.631 19.4498L364.637 19.4597L366.297 18.3437ZM361.891 14.2656L360.946 16.0286L360.958 16.0352L360.971 16.0416L361.891 14.2656ZM349.891 14.2656L350.823 16.0348L350.835 16.0286L349.891 14.2656ZM345.531 18.3437L343.858 17.2477L343.852 17.2579L343.845 17.2681L345.531 18.3437ZM342.859 25.0937L340.911 24.6407L340.909 24.6491L340.908 24.6574L342.859 25.0937ZM342.859 46.6094L340.906 47.0408L340.909 47.0541L340.913 47.0674L342.859 46.6094ZM361.938 57.5312L360.993 55.7683L360.986 55.7718L360.98 55.7754L361.938 57.5312ZM369.016 46.6094L367.068 46.1563L367.066 46.1647L367.064 46.1731L369.016 46.6094ZM364.82 60.8799L383.57 75.7393L386.055 72.6044L367.305 57.745L364.82 60.8799ZM383.515 72.6502L373.952 80.8064L376.548 83.8498L386.11 75.6935L383.515 72.6502ZM376.506 80.7714L358.084 65.912L355.572 69.0254L373.994 83.8848L376.506 80.7714ZM358.152 68.9677L367.387 60.8115L364.738 57.8135L355.504 65.9697L358.152 68.9677ZM383.469 34.375V37.4219H387.469V34.375H383.469ZM383.469 37.4219C383.469 42.4262 382.775 46.8545 381.424 50.7325L385.201 52.0488C386.725 47.6767 387.469 42.7925 387.469 37.4219H383.469ZM381.424 50.7325C380.064 54.6344 378.161 57.9105 375.735 60.5969L378.703 63.2781C381.527 60.1519 383.686 56.3968 385.201 52.0488L381.424 50.7325ZM375.735 60.5969C373.301 63.2914 370.426 65.3576 367.093 66.8065L368.688 70.4747C372.543 68.7986 375.887 66.396 378.703 63.2781L375.735 60.5969ZM367.101 66.8032C363.816 68.215 360.136 68.9375 356.031 68.9375V72.9375C360.614 72.9375 364.84 72.1287 368.68 70.4781L367.101 66.8032ZM356.031 68.9375C351.927 68.9375 348.228 68.2151 344.909 66.8007L343.341 70.4806C347.209 72.1287 351.448 72.9375 356.031 72.9375V68.9375ZM344.922 66.8065C341.588 65.3566 338.694 63.2879 336.226 60.5882L333.274 63.2868C336.119 66.3995 339.475 68.7996 343.328 70.4747L344.922 66.8065ZM336.234 60.5969C333.808 57.9105 331.905 54.6344 330.545 50.7325L326.768 52.0488C328.283 56.3968 330.442 60.1519 333.266 63.2781L336.234 60.5969ZM330.545 50.7325C329.193 46.8545 328.5 42.4262 328.5 37.4219H324.5C324.5 42.7925 325.244 47.6767 326.768 52.0488L330.545 50.7325ZM328.5 37.4219V34.375H324.5V37.4219H328.5ZM328.5 34.375C328.5 29.3706 329.193 24.9423 330.545 21.0644L326.768 19.7481C325.244 24.1201 324.5 29.0043 324.5 34.375H328.5ZM330.546 21.06C331.909 17.1217 333.799 13.8291 336.195 11.1442L333.211 8.48077C330.42 11.6084 328.279 15.3783 326.766 19.7525L330.546 21.06ZM336.187 11.1531C338.618 8.46151 341.489 6.41342 344.815 4.99618L343.247 1.31629C339.386 2.96155 336.038 5.35096 333.219 8.47191L336.187 11.1531ZM344.829 4.99038C348.145 3.5486 351.838 2.81248 355.938 2.81248V-1.18752C351.349 -1.18752 347.105 -0.361128 343.234 1.32209L344.829 4.99038ZM355.938 2.81248C360.037 2.81248 363.73 3.5486 367.046 4.99038L368.641 1.32209C364.77 -0.361128 360.526 -1.18752 355.938 -1.18752V2.81248ZM367.06 4.99618C370.386 6.41342 373.257 8.46151 375.688 11.1531L378.656 8.47191C375.837 5.35096 372.489 2.96155 368.628 1.31629L367.06 4.99618ZM375.688 11.1531C378.112 13.8368 380.015 17.1264 381.375 21.06L385.156 19.7525C383.641 15.3736 381.482 11.6006 378.656 8.47191L375.688 11.1531ZM381.382 21.0771C382.761 24.9511 383.469 29.3749 383.469 34.375H387.469C387.469 29.0001 386.708 24.1114 385.15 19.7354L381.382 21.0771ZM371.953 37.4219V34.2812H367.953V37.4219H371.953ZM371.953 34.2812C371.953 30.6977 371.631 27.4761 370.962 24.6357L367.069 25.5518C367.65 28.0239 367.953 30.9273 367.953 34.2812H371.953ZM370.969 24.6623C370.334 21.7914 369.346 19.2943 367.957 17.2277L364.637 19.4597C365.685 21.0181 366.509 23.0211 367.063 25.5252L370.969 24.6623ZM367.97 17.2477C366.613 15.1769 364.895 13.5694 362.81 12.4896L360.971 16.0416C362.386 16.7743 363.606 17.8856 364.624 19.4398L367.97 17.2477ZM362.835 12.5026C360.762 11.3919 358.446 10.8594 355.938 10.8594V14.8594C357.866 14.8594 359.52 15.2643 360.946 16.0286L362.835 12.5026ZM355.938 10.8594C353.376 10.8594 351.027 11.3877 348.946 12.5026L350.835 16.0286C352.254 15.2685 353.936 14.8594 355.938 14.8594V10.8594ZM348.958 12.4965C346.906 13.5783 345.21 15.185 343.858 17.2477L347.204 19.4398C348.228 17.8774 349.438 16.7654 350.823 16.0347L348.958 12.4965ZM343.845 17.2681C342.538 19.3173 341.574 21.7918 340.911 24.6407L344.807 25.5468C345.395 23.0206 346.212 20.9952 347.217 19.4194L343.845 17.2681ZM340.908 24.6574C340.274 27.4897 339.969 30.7036 339.969 34.2812H343.969C343.969 30.9214 344.257 28.0103 344.811 25.53L340.908 24.6574ZM339.969 34.2812V37.4219H343.969V34.2812H339.969ZM339.969 37.4219C339.969 40.9703 340.275 44.1817 340.906 47.0408L344.812 46.1779C344.256 43.662 343.969 40.7485 343.969 37.4219H339.969ZM340.913 47.0674C341.578 49.8935 342.56 52.3666 343.897 54.4423L347.26 52.2764C346.221 50.6646 345.391 48.6377 344.806 46.1513L340.913 47.0674ZM343.897 54.4423C345.248 56.5411 346.96 58.18 349.04 59.2942L350.929 55.7683C349.509 55.0075 348.283 53.8651 347.26 52.2764L343.897 54.4423ZM349.04 59.2942C351.121 60.4091 353.47 60.9375 356.031 60.9375V56.9375C354.03 56.9375 352.348 56.5283 350.929 55.7683L349.04 59.2942ZM356.031 60.9375C358.539 60.9375 360.845 60.4051 362.895 59.287L360.98 55.7754C359.592 56.5324 357.961 56.9375 356.031 56.9375V60.9375ZM362.882 59.2942C364.962 58.18 366.673 56.5411 368.025 54.4423L364.662 52.2764C363.639 53.8651 362.413 55.0075 360.993 55.7683L362.882 59.2942ZM368.025 54.4423C369.367 52.3594 370.334 49.8784 370.967 47.0457L367.064 46.1731C366.509 48.6529 365.696 50.6719 364.662 52.2764L368.025 54.4423ZM370.964 47.0624C371.63 44.1953 371.953 40.9763 371.953 37.4219H367.953C367.953 40.7424 367.651 43.6484 367.068 46.1563L370.964 47.0624ZM441.709 1.74998V-0.250015H439.709V1.74998H441.709ZM456.991 1.74998H458.991V-0.250015H456.991V1.74998ZM453.616 59.9687L451.916 58.914L451.91 58.9246L453.616 59.9687ZM416.678 68.1719L415.835 69.9857L415.841 69.9882L416.678 68.1719ZM407.303 59.9687L405.604 61.0235L405.61 61.034L407.303 59.9687ZM403.928 1.74998V-0.250015H401.928V1.74998H403.928ZM419.256 1.74998H421.256V-0.250015H419.256V1.74998ZM420.569 53.7812L418.756 54.627L418.765 54.6453L418.774 54.6635L420.569 53.7812ZM424.459 57.8594L423.539 59.6349L423.552 59.6416L423.565 59.6482L424.459 57.8594ZM436.6 57.8594L437.508 59.6414L437.514 59.6382L437.521 59.6349L436.6 57.8594ZM440.397 53.7812L438.585 52.9355L438.581 52.9422L438.578 52.949L440.397 53.7812ZM441.709 3.74998H456.991V-0.250015H441.709V3.74998ZM454.991 1.74998V46.5625H458.991V1.74998H454.991ZM454.991 46.5625C454.991 51.5933 453.927 55.675 451.916 58.914L455.315 61.0235C457.805 57.0125 458.991 52.1567 458.991 46.5625H454.991ZM451.91 58.9246C449.903 62.2033 447.114 64.675 443.492 66.358L445.177 69.9857C449.492 67.9812 452.891 64.9842 455.321 61.0128L451.91 58.9246ZM443.492 66.358C439.833 68.0578 435.536 68.9375 430.553 68.9375V72.9375C436.008 72.9375 440.898 71.9734 445.177 69.9857L443.492 66.358ZM430.553 68.9375C425.537 68.9375 421.207 68.0573 417.515 66.3555L415.841 69.9882C420.149 71.9739 425.069 72.9375 430.553 72.9375V68.9375ZM417.521 66.358C413.894 64.673 411.067 62.1948 408.996 58.9035L405.61 61.034C408.102 64.9926 411.525 67.9833 415.835 69.9857L417.521 66.358ZM409.002 58.914C406.992 55.675 405.928 51.5933 405.928 46.5625H401.928C401.928 52.1567 403.114 57.0125 405.604 61.0235L409.002 58.914ZM405.928 46.5625V1.74998H401.928V46.5625H405.928ZM403.928 3.74998H419.256V-0.250015H403.928V3.74998ZM417.256 1.74998V46.5625H421.256V1.74998H417.256ZM417.256 46.5625C417.256 49.6781 417.717 52.4003 418.756 54.627L422.381 52.9355C421.67 51.4122 421.256 49.3219 421.256 46.5625H417.256ZM418.774 54.6635C419.852 56.8579 421.441 58.547 423.539 59.6349L425.38 56.0838C424.103 55.4217 423.098 54.392 422.364 52.899L418.774 54.6635ZM423.565 59.6482C425.593 60.6621 427.946 61.125 430.553 61.125V57.125C428.41 57.125 426.701 56.7442 425.354 56.0705L423.565 59.6482ZM430.553 61.125C433.159 61.125 435.503 60.6626 437.508 59.6414L435.692 56.0773C434.384 56.7436 432.698 57.125 430.553 57.125V61.125ZM437.521 59.6349C439.632 58.5402 441.199 56.8341 442.215 54.6135L438.578 52.949C437.907 54.4159 436.943 55.4285 435.679 56.0838L437.521 59.6349ZM442.209 54.627C443.248 52.4003 443.709 49.6781 443.709 46.5625H439.709C439.709 49.3219 439.295 51.4122 438.585 52.9355L442.209 54.627ZM443.709 46.5625V1.74998H439.709V46.5625H443.709ZM523.919 58.1875H525.919V56.1875H523.919V58.1875ZM523.919 70V72H525.919V70H523.919ZM487.591 70H485.591V72H487.591V70ZM487.591 58.1875V56.1875H485.591V58.1875H487.591ZM492.794 1.74998H494.794V-0.250015H492.794V1.74998ZM492.794 70V72H494.794V70H492.794ZM477.513 70H475.513V72H477.513V70ZM477.513 1.74998V-0.250015H475.513V1.74998H477.513ZM519.231 29.2187H521.231V27.2187H519.231V29.2187ZM519.231 40.6562V42.6562H521.231V40.6562H519.231ZM487.591 40.6562H485.591V42.6562H487.591V40.6562ZM487.591 29.2187V27.2187H485.591V29.2187H487.591ZM523.966 1.74998H525.966V-0.250015H523.966V1.74998ZM523.966 13.6094V15.6094H525.966V13.6094H523.966ZM487.591 13.6094H485.591V15.6094H487.591V13.6094ZM487.591 1.74998V-0.250015H485.591V1.74998H487.591ZM521.919 58.1875V70H525.919V58.1875H521.919ZM523.919 68H487.591V72H523.919V68ZM489.591 70V58.1875H485.591V70H489.591ZM487.591 60.1875H523.919V56.1875H487.591V60.1875ZM490.794 1.74998V70H494.794V1.74998H490.794ZM492.794 68H477.513V72H492.794V68ZM479.513 70V1.74998H475.513V70H479.513ZM477.513 3.74998H492.794V-0.250015H477.513V3.74998ZM517.231 29.2187V40.6562H521.231V29.2187H517.231ZM519.231 38.6562H487.591V42.6562H519.231V38.6562ZM489.591 40.6562V29.2187H485.591V40.6562H489.591ZM487.591 31.2187H519.231V27.2187H487.591V31.2187ZM521.966 1.74998V13.6094H525.966V1.74998H521.966ZM523.966 11.6094H487.591V15.6094H523.966V11.6094ZM489.591 13.6094V1.74998H485.591V13.6094H489.591ZM487.591 3.74998H523.966V-0.250015H487.591V3.74998ZM56.9219 114.75H58.9219V112.75H56.9219V114.75ZM56.9219 183V185H58.9219V183H56.9219ZM41.6875 183L39.9608 184.009L40.5399 185H41.6875V183ZM15.9062 138.891L17.6329 137.881L13.9062 131.505V138.891H15.9062ZM15.9062 183V185H17.9062V183H15.9062ZM0.625 183H-1.375V185H0.625V183ZM0.625 114.75V112.75H-1.375V114.75H0.625ZM15.9062 114.75L17.6321 113.739L17.0528 112.75H15.9062V114.75ZM41.7344 158.859L40.0085 159.87L43.7344 166.233V158.859H41.7344ZM41.7344 114.75V112.75H39.7344V114.75H41.7344ZM54.9219 114.75V183H58.9219V114.75H54.9219ZM56.9219 181H41.6875V185H56.9219V181ZM43.4142 181.991L17.6329 137.881L14.1796 139.9L39.9608 184.009L43.4142 181.991ZM13.9062 138.891V183H17.9062V138.891H13.9062ZM15.9062 181H0.625V185H15.9062V181ZM2.625 183V114.75H-1.375V183H2.625ZM0.625 116.75H15.9062V112.75H0.625V116.75ZM14.1804 115.761L40.0085 159.87L43.4603 157.849L17.6321 113.739L14.1804 115.761ZM43.7344 158.859V114.75H39.7344V158.859H43.7344ZM41.7344 116.75H56.9219V112.75H41.7344V116.75ZM124.225 171.187H126.225V169.187H124.225V171.187ZM124.225 183V185H126.225V183H124.225ZM87.8969 183H85.8969V185H87.8969V183ZM87.8969 171.187V169.187H85.8969V171.187H87.8969ZM93.1 114.75H95.1V112.75H93.1V114.75ZM93.1 183V185H95.1V183H93.1ZM77.8187 183H75.8187V185H77.8187V183ZM77.8187 114.75V112.75H75.8187V114.75H77.8187ZM119.537 142.219H121.537V140.219H119.537V142.219ZM119.537 153.656V155.656H121.537V153.656H119.537ZM87.8969 153.656H85.8969V155.656H87.8969V153.656ZM87.8969 142.219V140.219H85.8969V142.219H87.8969ZM124.272 114.75H126.272V112.75H124.272V114.75ZM124.272 126.609V128.609H126.272V126.609H124.272ZM87.8969 126.609H85.8969V128.609H87.8969V126.609ZM87.8969 114.75V112.75H85.8969V114.75H87.8969ZM122.225 171.187V183H126.225V171.187H122.225ZM124.225 181H87.8969V185H124.225V181ZM89.8969 183V171.187H85.8969V183H89.8969ZM87.8969 173.187H124.225V169.187H87.8969V173.187ZM91.1 114.75V183H95.1V114.75H91.1ZM93.1 181H77.8187V185H93.1V181ZM79.8187 183V114.75H75.8187V183H79.8187ZM77.8187 116.75H93.1V112.75H77.8187V116.75ZM117.537 142.219V153.656H121.537V142.219H117.537ZM119.537 151.656H87.8969V155.656H119.537V151.656ZM89.8969 153.656V142.219H85.8969V153.656H89.8969ZM87.8969 144.219H119.537V140.219H87.8969V144.219ZM122.272 114.75V126.609H126.272V114.75H122.272ZM124.272 124.609H87.8969V128.609H124.272V124.609ZM89.8969 126.609V114.75H85.8969V126.609H89.8969ZM87.8969 116.75H124.272V112.75H87.8969V116.75ZM174.044 114.75H176.044V112.75H174.044V114.75ZM174.044 183V185H176.044V183H174.044ZM158.809 183H156.809V185H158.809V183ZM158.809 114.75V112.75H156.809V114.75H158.809ZM194.809 114.75H196.809V112.75H194.809V114.75ZM194.809 126.609V128.609H196.809V126.609H194.809ZM138.466 126.609H136.466V128.609H138.466V126.609ZM138.466 114.75V112.75H136.466V114.75H138.466ZM172.044 114.75V183H176.044V114.75H172.044ZM174.044 181H158.809V185H174.044V181ZM160.809 183V114.75H156.809V183H160.809ZM158.809 116.75H174.044V112.75H158.809V116.75ZM192.809 114.75V126.609H196.809V114.75H192.809ZM194.809 124.609H138.466V128.609H194.809V124.609ZM140.466 126.609V114.75H136.466V126.609H140.466ZM138.466 116.75H194.809V112.75H138.466V116.75ZM265.394 164.391L263.505 163.732L263.501 163.745L265.394 164.391ZM259.347 174.937L257.863 173.597L257.855 173.606L259.347 174.937ZM250.066 181.641L250.855 183.478L250.863 183.475L250.066 181.641ZM226.3 181.641L225.503 183.475L225.509 183.478L225.516 183.481L226.3 181.641ZM216.925 174.937L215.441 176.278L215.449 176.287L216.925 174.937ZM210.831 133.406L212.72 134.064L212.721 134.06L210.831 133.406ZM216.878 122.812L215.394 121.472L215.386 121.481L216.878 122.812ZM226.206 116.156L226.99 117.996L226.997 117.993L227.004 117.99L226.206 116.156ZM250.019 116.156L249.221 117.99L249.228 117.993L249.235 117.996L250.019 116.156ZM259.3 122.812L257.808 124.144L257.816 124.153L259.3 122.812ZM265.394 133.406L263.504 134.06L263.505 134.064L265.394 133.406ZM251.191 138.094L249.243 138.547L249.244 138.552L251.191 138.094ZM244.066 127.266L243.121 129.029L243.134 129.035L243.146 129.042L244.066 127.266ZM232.066 127.266L232.998 129.035L233.011 129.028L233.023 129.021L232.066 127.266ZM227.706 131.344L226.033 130.248L226.027 130.258L226.02 130.268L227.706 131.344ZM225.034 138.094L223.086 137.641L223.084 137.649L223.083 137.657L225.034 138.094ZM225.034 159.609L223.081 160.041L223.084 160.054L223.088 160.067L225.034 159.609ZM232.113 170.531L231.155 172.287L231.161 172.291L231.168 172.294L232.113 170.531ZM244.113 170.531L243.168 168.768L243.161 168.772L243.155 168.775L244.113 170.531ZM251.191 159.609L249.243 159.156L249.241 159.165L249.239 159.173L251.191 159.609ZM265.55 147.375V150.422H269.55V147.375H265.55ZM265.55 150.422C265.55 155.426 264.857 159.855 263.505 163.732L267.282 165.049C268.806 160.677 269.55 155.793 269.55 150.422H265.55ZM263.501 163.745C262.172 167.642 260.286 170.914 257.863 173.597L260.831 176.278C263.658 173.149 265.803 169.389 267.287 165.036L263.501 163.745ZM257.855 173.606C255.455 176.295 252.598 178.359 249.268 179.806L250.863 183.475C254.72 181.798 258.052 179.393 260.839 176.269L257.855 173.606ZM249.276 179.803C245.991 181.215 242.311 181.937 238.206 181.937V185.937C242.789 185.937 247.015 185.129 250.855 183.478L249.276 179.803ZM238.206 181.937C234.102 181.937 230.403 181.215 227.084 179.801L225.516 183.481C229.384 185.129 233.623 185.937 238.206 185.937V181.937ZM227.097 179.806C223.763 178.357 220.869 176.288 218.401 173.588L215.449 176.287C218.294 179.4 221.65 181.8 225.503 183.475L227.097 179.806ZM218.409 173.597C215.983 170.911 214.08 167.634 212.72 163.732L208.943 165.049C210.458 169.397 212.617 173.152 215.441 176.278L218.409 173.597ZM212.72 163.732C211.368 159.855 210.675 155.426 210.675 150.422H206.675C206.675 155.793 207.419 160.677 208.943 165.049L212.72 163.732ZM210.675 150.422V147.375H206.675V150.422H210.675ZM210.675 147.375C210.675 142.371 211.368 137.942 212.72 134.064L208.943 132.748C207.419 137.12 206.675 142.004 206.675 147.375H210.675ZM212.721 134.06C214.084 130.122 215.974 126.829 218.37 124.144L215.386 121.481C212.595 124.608 210.454 128.378 208.941 132.753L212.721 134.06ZM218.362 124.153C220.793 121.462 223.664 119.413 226.99 117.996L225.422 114.316C221.561 115.962 218.213 118.351 215.394 121.472L218.362 124.153ZM227.004 117.99C230.32 116.549 234.013 115.812 238.113 115.812V111.812C233.524 111.812 229.28 112.639 225.409 114.322L227.004 117.99ZM238.113 115.812C242.212 115.812 245.905 116.549 249.221 117.99L250.816 114.322C246.945 112.639 242.701 111.812 238.113 111.812V115.812ZM249.235 117.996C252.559 119.412 255.41 121.458 257.808 124.144L260.792 121.481C258.002 118.354 254.666 115.962 250.803 114.316L249.235 117.996ZM257.816 124.153C260.24 126.837 262.143 130.126 263.504 134.06L267.284 132.753C265.769 128.374 263.61 124.601 260.784 121.472L257.816 124.153ZM263.505 134.064C264.857 137.942 265.55 142.371 265.55 147.375H269.55C269.55 142.004 268.806 137.12 267.282 132.748L263.505 134.064ZM254.128 150.422V147.281H250.128V150.422H254.128ZM254.128 147.281C254.128 143.698 253.806 140.476 253.137 137.636L249.244 138.552C249.825 141.024 250.128 143.927 250.128 147.281H254.128ZM253.139 137.641C252.474 134.784 251.491 132.302 250.145 130.248L246.799 132.44C247.828 134.01 248.657 136.028 249.243 138.547L253.139 137.641ZM250.145 130.248C248.788 128.177 247.07 126.569 244.985 125.49L243.146 129.042C244.561 129.774 245.781 130.886 246.799 132.44L250.145 130.248ZM245.01 125.503C242.937 124.392 240.621 123.859 238.113 123.859V127.859C240.041 127.859 241.695 128.264 243.121 129.029L245.01 125.503ZM238.113 123.859C235.526 123.859 233.169 124.385 231.108 125.51L233.023 129.021C234.399 128.271 236.074 127.859 238.113 127.859V123.859ZM231.133 125.496C229.081 126.578 227.385 128.185 226.033 130.248L229.379 132.44C230.403 130.877 231.613 129.765 232.998 129.035L231.133 125.496ZM226.02 130.268C224.713 132.317 223.749 134.792 223.086 137.641L226.982 138.547C227.57 136.021 228.387 133.995 229.392 132.419L226.02 130.268ZM223.083 137.657C222.449 140.49 222.144 143.704 222.144 147.281H226.144C226.144 143.921 226.432 141.01 226.986 138.53L223.083 137.657ZM222.144 147.281V150.422H226.144V147.281H222.144ZM222.144 150.422C222.144 153.97 222.45 157.182 223.081 160.041L226.987 159.178C226.431 156.662 226.144 153.748 226.144 150.422H222.144ZM223.088 160.067C223.753 162.894 224.735 165.367 226.072 167.442L229.435 165.276C228.396 163.665 227.566 161.638 226.981 159.151L223.088 160.067ZM226.072 167.442C227.418 169.533 229.108 171.171 231.155 172.287L233.07 168.775C231.679 168.017 230.463 166.873 229.435 165.276L226.072 167.442ZM231.168 172.294C233.253 173.411 235.619 173.937 238.206 173.937V169.937C236.169 169.937 234.472 169.526 233.057 168.768L231.168 172.294ZM238.206 173.937C240.714 173.937 243.02 173.405 245.07 172.287L243.155 168.775C241.767 169.532 240.136 169.937 238.206 169.937V173.937ZM245.057 172.294C247.137 171.18 248.848 169.541 250.2 167.442L246.837 165.276C245.814 166.865 244.588 168.008 243.168 168.768L245.057 172.294ZM250.2 167.442C251.542 165.359 252.509 162.878 253.142 160.046L249.239 159.173C248.684 161.653 247.871 163.672 246.837 165.276L250.2 167.442ZM253.139 160.062C253.805 157.195 254.128 153.976 254.128 150.422H250.128C250.128 153.742 249.826 156.648 249.243 159.156L253.139 160.062Z" fill="white"/>
</svg>
