<svg width="33" height="20" viewBox="0 0 33 20" fill="none" xmlns="http://www.w3.org/2000/svg">
<path d="M15.6042 16.552C15.5242 16.552 15.4842 16.464 15.4842 16.288C15.4842 16.128 15.5322 15.904 15.6282 15.616C15.7882 15.152 16.0682 14.528 16.4682 13.744C16.8842 12.96 17.3642 12.088 17.9082 11.128C18.4682 10.168 19.0602 9.176 19.6842 8.152C20.3242 7.128 20.9482 6.144 21.5562 5.2C22.1802 4.24 22.7482 3.376 23.2602 2.608C23.7882 1.84 24.2202 1.232 24.5562 0.784C24.9082 0.335999 25.1242 0.111999 25.2042 0.111999H25.4202C25.5642 0.111999 25.6362 0.159999 25.6362 0.256C25.6362 0.351999 25.5482 0.511999 25.3722 0.735999C24.7002 1.616 23.9882 2.608 23.2362 3.712C22.4842 4.8 21.7322 5.928 20.9802 7.096C20.2442 8.264 19.5402 9.416 18.8682 10.552C18.1962 11.688 17.5962 12.752 17.0682 13.744C16.5402 14.736 16.1242 15.584 15.8202 16.288C15.7402 16.464 15.6682 16.552 15.6042 16.552ZM5.47619 19.456C5.39619 19.456 5.35619 19.368 5.35619 19.192C5.35619 19.032 5.40419 18.808 5.50019 18.52C5.66019 18.056 5.94819 17.416 6.36419 16.6C6.79619 15.8 7.30819 14.904 7.90019 13.912C8.49219 12.904 9.10819 11.872 9.74819 10.816C9.39619 10.864 9.04419 10.912 8.69219 10.96C8.35619 11.008 8.02819 11.064 7.70819 11.128C5.64419 11.48 4.13219 11.976 3.17219 12.616C2.22819 13.24 1.75619 13.816 1.75619 14.344C1.75619 14.664 1.90819 14.944 2.21219 15.184C2.24419 15.216 2.26019 15.24 2.26019 15.256C2.26019 15.272 2.22819 15.28 2.16419 15.28C2.06819 15.28 1.99619 15.256 1.94819 15.208C1.26019 14.696 0.916188 14.072 0.916188 13.336C0.916188 12.808 1.11619 12.28 1.51619 11.752C1.93219 11.224 2.57219 10.744 3.43619 10.312C4.31619 9.864 5.44419 9.52 6.82019 9.28C7.49219 9.152 8.17219 9.056 8.86019 8.992C9.56419 8.928 10.2602 8.904 10.9482 8.92C11.5082 8.04 12.0522 7.208 12.5802 6.424C13.1082 5.64 13.5802 4.944 13.9962 4.336C14.4282 3.712 14.7802 3.224 15.0522 2.872C15.3402 2.52 15.5162 2.344 15.5802 2.344H15.7962C15.9402 2.344 16.0122 2.392 16.0122 2.488C16.0122 2.584 15.9242 2.744 15.7482 2.968C15.1402 3.784 14.4762 4.712 13.7562 5.752C13.0362 6.776 12.3162 7.84 11.5962 8.944C12.3482 8.992 13.0922 9.088 13.8282 9.232C14.1162 9.296 14.4522 9.384 14.8362 9.496C15.2202 9.608 15.5962 9.752 15.9642 9.928C16.3482 10.088 16.6762 10.296 16.9482 10.552C17.2202 10.808 17.3802 11.112 17.4282 11.464C17.4442 11.576 17.4282 11.632 17.3802 11.632C17.3482 11.616 17.3162 11.576 17.2842 11.512C17.2202 11.32 17.0042 11.168 16.6362 11.056C16.2842 10.944 15.9082 10.864 15.5082 10.816C15.1242 10.752 14.8362 10.712 14.6442 10.696C14.1482 10.648 13.6282 10.624 13.0842 10.624C12.2042 10.624 11.3162 10.672 10.4202 10.768C9.73219 11.856 9.07619 12.928 8.45219 13.984C7.82819 15.024 7.27619 15.992 6.79619 16.888C6.33219 17.784 5.96419 18.552 5.69219 19.192C5.61219 19.368 5.54019 19.456 5.47619 19.456ZM22.0488 16.12C21.8888 16.12 21.6968 16.08 21.4728 16C21.2488 15.936 21.0248 15.808 20.8008 15.616C20.9768 15.376 21.2328 15.056 21.5688 14.656C21.8888 14.24 22.2328 13.784 22.6008 13.288C22.9688 12.792 23.3128 12.296 23.6328 11.8C23.3768 12.056 23.0968 12.328 22.7928 12.616C22.4888 12.904 22.1848 13.168 21.8808 13.408C21.8168 13.472 21.7448 13.504 21.6648 13.504C21.6008 13.504 21.5688 13.472 21.5688 13.408C21.5688 13.328 21.6328 13.232 21.7608 13.12C22.2088 12.72 22.7048 12.264 23.2488 11.752C23.8088 11.224 24.2168 10.688 24.4728 10.144C24.5528 9.952 24.5928 9.776 24.5928 9.616C24.5928 9.408 24.5528 9.28 24.4728 9.232C24.4088 9.184 24.3768 9.12 24.3768 9.04C24.3768 8.896 24.4488 8.824 24.5928 8.824C24.6728 8.824 24.7368 8.84 24.7848 8.872C24.9608 8.952 25.1288 9.104 25.2888 9.328C25.4488 9.552 25.5288 9.888 25.5288 10.336C25.5288 10.592 25.4968 10.888 25.4328 11.224C25.3688 11.544 25.2568 11.912 25.0968 12.328C25.3368 12.008 25.5768 11.696 25.8168 11.392C26.0728 11.088 26.3048 10.816 26.5128 10.576C26.9448 10.08 27.3768 9.728 27.8088 9.52C28.2568 9.296 28.6568 9.184 29.0088 9.184C29.4248 9.184 29.7608 9.304 30.0168 9.544C30.2728 9.784 30.4008 10.096 30.4008 10.48C30.4008 10.784 30.3208 11.096 30.1608 11.416C30.1128 11.544 30.0008 11.744 29.8248 12.016C29.6488 12.272 29.4568 12.552 29.2488 12.856C29.0408 13.16 28.8488 13.432 28.6728 13.672C28.4648 13.928 28.3208 14.152 28.2408 14.344C28.1608 14.52 28.1208 14.664 28.1208 14.776C28.1208 14.936 28.2088 15.016 28.3848 15.016C28.6088 15.016 28.9208 14.896 29.3208 14.656C29.5608 14.512 29.8328 14.32 30.1368 14.08C30.4568 13.824 30.7688 13.568 31.0728 13.312C31.3928 13.04 31.6488 12.816 31.8408 12.64C31.9048 12.576 31.9608 12.544 32.0088 12.544C32.0728 12.544 32.1048 12.584 32.1048 12.664C32.1048 12.76 32.0648 12.848 31.9848 12.928C31.5048 13.376 30.9448 13.864 30.3048 14.392C29.6808 14.92 29.0648 15.328 28.4568 15.616C27.9608 15.856 27.5048 15.976 27.0888 15.976C26.7368 15.976 26.4568 15.888 26.2488 15.712C26.0408 15.52 25.9368 15.248 25.9368 14.896C25.9368 14.64 26.0008 14.336 26.1288 13.984C26.2888 13.552 26.5128 13.12 26.8008 12.688C27.1048 12.256 27.4168 11.848 27.7368 11.464C28.0728 11.064 28.3608 10.728 28.6008 10.456C28.8088 10.232 28.9128 10.04 28.9128 9.88C28.9128 9.736 28.8168 9.664 28.6248 9.664C28.4328 9.664 28.1448 9.776 27.7608 10C27.3928 10.208 26.9768 10.552 26.5128 11.032C25.8568 11.72 25.2808 12.464 24.7848 13.264C24.2888 14.064 23.7208 14.816 23.0808 15.52C22.7288 15.92 22.3848 16.12 22.0488 16.12Z" fill="white"/>
</svg>
