<svg width="20" height="20" viewBox="0 0 20 20" fill="none" xmlns="http://www.w3.org/2000/svg">
<path d="M14.9722 0H5.0119C2.25218 0 0 2.25397 0 5.01587V15C0 17.746 2.25218 20 5.0119 20H14.9881C17.7478 20 20 17.746 20 14.9841V5.01587C19.9841 2.25397 17.732 0 14.9722 0ZM6.66138 16.1905H3.8065V7.93651H6.66138V16.1905ZM5.21808 6.66667C4.4092 6.66667 3.75892 6.01587 3.75892 5.20635C3.75892 4.39683 4.4092 3.74603 5.21808 3.74603C6.02696 3.74603 6.67724 4.39683 6.67724 5.20635C6.66138 6.01587 6.0111 6.66667 5.21808 6.66667ZM16.1935 16.1905H16.1776H13.7986V12.1905C13.7986 11.2222 13.6717 9.98413 12.3553 9.98413C11.0071 9.98413 10.7851 11.0317 10.7851 12.127V16.1905H8.40603V7.93651H10.6265V9.04762H10.6899C11.0389 8.4127 11.8477 7.92064 13.1166 7.92064C15.7335 7.92064 16.1935 9.42857 16.1935 11.6667V16.1905Z" fill="white"/>
</svg>
