<svg width="192" height="192" viewBox="0 0 192 192" fill="none" xmlns="http://www.w3.org/2000/svg">
<path d="M0 5C0 2.23858 2.23858 0 5 0H187C189.761 0 192 2.23858 192 5V192H0V5Z" fill="white"/>
<path d="M71.9463 123.167L68.8057 126.308L67.1567 124.659L70.2973 121.518C70.8442 120.972 71.1977 120.441 71.3579 119.927C71.5181 119.414 71.5209 118.925 71.3662 118.461C71.2115 117.986 70.9326 117.546 70.5293 117.143C70.1481 116.762 69.7117 116.486 69.22 116.315C68.7284 116.132 68.2118 116.107 67.6705 116.24C67.1291 116.373 66.585 116.712 66.038 117.259L63.5356 119.762L73.9433 130.169L71.8634 132.249L59.7984 120.184L64.3808 115.602C65.3144 114.668 66.2728 114.041 67.2561 113.721C68.2395 113.389 69.1924 113.342 70.115 113.58C71.032 113.812 71.8606 114.298 72.6009 115.038C73.3798 115.817 73.877 116.657 74.0924 117.558C74.3079 118.458 74.2361 119.386 73.877 120.342C73.5234 121.292 72.8799 122.234 71.9463 123.167ZM85.3437 104.715L86.9927 106.364L80.5873 112.77L78.9383 111.121L85.3437 104.715ZM74.4139 105.569L86.479 117.634L84.3991 119.714L72.3341 107.649L74.4139 105.569ZM81.9049 98.0778L93.9699 110.143L91.8983 112.214L79.8333 100.149L81.9049 98.0778ZM101.401 89.9837L102.064 90.6466C102.976 91.5581 103.674 92.4944 104.16 93.4557C104.647 94.4169 104.923 95.3726 104.989 96.3228C105.061 97.2674 104.926 98.1817 104.583 99.0656C104.235 99.9439 103.688 100.756 102.942 101.502C102.202 102.242 101.393 102.786 100.514 103.134C99.6361 103.471 98.7191 103.609 97.7634 103.549C96.8077 103.488 95.8437 103.22 94.8714 102.745C93.9047 102.264 92.9656 101.568 92.0541 100.657L91.3911 99.9936C90.4796 99.0821 89.7863 98.1458 89.3113 97.1845C88.8306 96.2178 88.5572 95.2593 88.4909 94.3092C88.4246 93.3479 88.5627 92.4309 88.9052 91.5581C89.2477 90.6742 89.7891 89.8621 90.5294 89.1219C91.2751 88.3761 92.09 87.832 92.9738 87.4894C93.8522 87.1414 94.7692 87.0033 95.7249 87.0751C96.6751 87.1414 97.6308 87.4176 98.592 87.9038C99.5533 88.3789 100.49 89.0722 101.401 89.9837ZM99.9841 92.7265L99.3047 92.047C98.6307 91.373 97.9705 90.8454 97.3242 90.4643C96.6779 90.072 96.0536 89.829 95.4515 89.7351C94.8493 89.6301 94.2776 89.6715 93.7362 89.8594C93.1893 90.0417 92.6866 90.3621 92.2281 90.8206C91.7696 91.2791 91.4519 91.779 91.2751 92.3204C91.0928 92.8563 91.0514 93.428 91.1508 94.0357C91.2503 94.6323 91.4933 95.2566 91.88 95.9084C92.2612 96.5548 92.7888 97.2149 93.4627 97.8889L94.1422 98.5684C94.8162 99.2423 95.4791 99.7727 96.131 100.159C96.7828 100.546 97.4154 100.792 98.0286 100.897C98.6417 100.991 99.219 100.949 99.7604 100.773C100.296 100.59 100.793 100.27 101.252 99.8113C101.716 99.3473 102.039 98.8474 102.221 98.3115C102.398 97.7701 102.434 97.1984 102.329 96.5962C102.219 95.9885 101.967 95.3615 101.575 94.7152C101.188 94.0633 100.658 93.4004 99.9841 92.7265ZM104.026 75.9564L116.091 88.0214L114.028 90.0847L101.963 78.0197L104.026 75.9564ZM107.813 72.1695L109.47 73.8268L99.8665 83.4308L98.2092 81.7735L107.813 72.1695ZM126.191 65.194L126.854 65.857C127.765 66.7685 128.464 67.7048 128.95 68.666C129.436 69.6273 129.712 70.583 129.779 71.5331C129.851 72.4778 129.715 73.3921 129.373 74.2759C129.025 75.1543 128.478 75.9664 127.732 76.7121C126.992 77.4524 126.182 77.9965 125.304 78.3446C124.426 78.6815 123.509 78.8197 122.553 78.7589C121.597 78.6981 120.633 78.4302 119.661 77.9551C118.694 77.4745 117.755 76.7784 116.844 75.8669L116.181 75.204C115.269 74.2925 114.576 73.3561 114.101 72.3949C113.62 71.4282 113.347 70.4697 113.281 69.5195C113.214 68.5583 113.352 67.6413 113.695 66.7685C114.037 65.8846 114.579 65.0725 115.319 64.3323C116.065 63.5865 116.88 63.0423 117.763 62.6998C118.642 62.3518 119.559 62.2137 120.515 62.2855C121.465 62.3518 122.42 62.628 123.382 63.1141C124.343 63.5892 125.279 64.2825 126.191 65.194ZM124.774 67.9368L124.094 67.2574C123.42 66.5834 122.76 66.0558 122.114 65.6746C121.467 65.2824 120.843 65.0394 120.241 64.9454C119.639 64.8405 119.067 64.8819 118.526 65.0697C117.979 65.252 117.476 65.5725 117.018 66.031C116.559 66.4895 116.242 66.9894 116.065 67.5308C115.882 68.0667 115.841 68.6384 115.94 69.2461C116.04 69.8427 116.283 70.467 116.67 71.1188C117.051 71.7652 117.578 72.4253 118.252 73.0993L118.932 73.7788C119.606 74.4527 120.269 74.983 120.921 75.3697C121.572 75.7564 122.205 76.0023 122.818 76.1072C123.431 76.2011 124.009 76.1597 124.55 75.9829C125.086 75.8006 125.583 75.4802 126.042 75.0217C126.506 74.5577 126.829 74.0577 127.011 73.5219C127.188 72.9805 127.224 72.4087 127.119 71.8066C127.008 71.1989 126.757 70.5719 126.365 69.9256C125.978 69.2737 125.448 68.6108 124.774 67.9368Z" fill="black"/>
</svg>
