<svg width="102" height="82" viewBox="0 0 102 82" fill="none" xmlns="http://www.w3.org/2000/svg">
<path d="M68.2109 78.3365H63.5192V72.081H38.4973V78.3365H33.8056C32.9424 78.3365 32.2418 79.0371 32.2418 79.9004C32.2418 80.7636 32.9424 81.4642 33.8056 81.4642H68.2109C69.0741 81.4642 69.7747 80.7636 69.7747 79.9004C69.7747 79.0371 69.0741 78.3365 68.2109 78.3365ZM101.052 9.52606V59.57C101.052 64.7527 96.8516 68.9533 91.669 68.9533H10.3475C5.16486 68.9533 0.964294 64.7527 0.964294 59.57V9.52606C0.964294 4.34339 5.16486 0.142822 10.3475 0.142822H91.669C96.8516 0.142822 101.052 4.34339 101.052 9.52606Z" fill="white"/>
<path d="M33.8215 41.9672V35.9625L41.625 28.9613L45.5268 32.8631L49.4285 19.8572L57.2321 28.9613L62.4345 23.759L58.5327 19.8572H68.9374V30.2619L65.0357 26.3602L57.2321 34.1637L50.7292 26.3602L46.8274 39.366L41.625 34.1637L33.8215 41.9672Z" fill="black"/>
<path d="M68.9375 48.47H65.0358V31.5623L68.9375 35.464V48.47ZM61.134 48.47H57.2322V39.3658L61.134 35.4641V48.47ZM53.3304 48.47H49.4286V40.6665L51.3795 32.8629L53.3304 35.464V48.47ZM45.5268 48.47H41.625V39.3658L45.5268 43.2676V48.47ZM37.7233 48.47H33.8215V47.1695L37.7233 43.2677V48.47Z" fill="black"/>
</svg>
